<svg width="172" height="174" viewBox="0 0 172 174" fill="none" xmlns="http://www.w3.org/2000/svg">
<path d="M171.891 75.8814C171.447 62.0906 164.106 48.9671 152.54 41.4044C145.867 36.9558 138.527 33.3969 130.741 30.5052C129.407 30.0604 127.85 29.3931 126.07 28.9482C114.282 25.3893 104.05 24.4996 97.1543 24.4996C96.0421 19.3836 94.9299 14.935 93.8178 11.5985C92.2607 6.70502 88.7018 2.47881 84.0308 0.921789C79.8046 -0.635235 75.1335 -0.190371 71.1297 2.03395C64.6792 6.03772 58.4511 11.1537 53.3352 16.492C44.4379 24.0547 23.5293 44.5185 17.3012 51.8587C17.0787 52.0811 16.8563 52.3036 16.8563 52.526C9.29362 62.5354 5.06741 68.7635 1.73093 74.9916C-0.270959 78.3281 -0.493391 82.3319 0.841201 85.8908C2.17579 89.4497 4.84498 92.5638 8.40389 93.8983C11.0731 95.0105 13.9647 96.1227 17.0787 97.0124C19.5255 98.5694 25.5312 102.128 34.8733 105.91C30.2022 110.803 25.976 117.031 22.6395 124.594C20.1928 130.377 20.8601 137.273 24.419 142.389C30.4247 151.063 42.2136 158.848 47.7744 162.63L49.1089 163.52C58.0062 169.748 68.9054 173.084 79.8046 173.084C80.9167 173.084 82.2513 173.084 83.3635 172.862C102.27 171.527 121.177 167.968 133.856 163.075C148.536 157.514 159.88 145.947 164.996 131.489C171.669 113.917 172.336 91.4516 171.891 75.8814Z" fill="#211D70"/>
<path d="M103.347 76.0233C104.237 89.1468 104.459 102.715 104.014 110.278C102.902 129.407 96.2291 139.194 93.115 144.755C92.8926 145.2 93.115 145.644 93.115 145.867C93.3375 146.089 93.5599 146.312 94.2272 146.312L95.1169 146.089C105.349 142.753 112.022 133.411 114.691 121.399C115.358 117.84 115.803 112.947 115.803 109.388C115.803 108.276 116.693 107.386 117.805 107.164L128.037 106.496C128.704 106.496 129.371 106.719 129.816 107.164C130.261 107.609 130.484 108.276 130.484 108.943C130.484 109.166 128.704 124.513 133.375 132.076C134.043 133.188 135.155 133.411 135.6 133.411C136.489 133.411 137.379 132.966 137.824 132.076C140.271 127.85 144.052 117.173 144.052 105.384C144.052 104.05 144.942 103.16 146.276 103.16C146.276 103.16 152.059 102.27 152.059 104.939C152.282 106.719 150.28 108.053 148.945 108.721C148.278 119.62 144.497 129.407 141.383 134.523C140.048 136.747 137.824 138.082 135.377 138.082C132.93 138.082 130.484 136.747 129.371 134.745C125.368 128.072 124.923 117.396 124.923 112.502L120.919 112.947C120.697 116.283 120.474 119.62 119.584 122.734C116.693 136.302 108.018 146.757 96.2291 150.76L95.5618 150.316C94.8945 150.538 94.4496 150.538 93.7823 150.538C92.2253 150.538 90.6683 149.871 89.5561 148.536C87.9991 146.757 87.9991 144.31 89.1112 142.308C92.0029 137.414 96.6739 128.517 97.1188 111.835C86.8869 111.612 77.7672 110.723 69.3148 109.388C72.6513 111.612 76.2102 114.059 79.5467 116.951C82.6607 119.62 83.5504 122.734 82.2159 126.738L81.9934 127.627C80.6588 131.409 78.4345 138.527 74.4307 144.31C73.0961 146.312 71.0943 147.424 68.8699 147.869C66.4232 148.314 62.8643 146.979 60.8624 145.422C60.1951 144.977 59.5278 144.31 58.6381 143.865C55.3016 141.418 49.7408 137.637 46.6267 134.523C45.0697 132.966 44.4024 130.519 44.8473 128.295C45.2921 126.07 46.8492 124.069 48.8511 123.179C52.8548 121.399 58.4156 120.955 62.6418 120.732C63.754 120.732 64.8662 121.622 64.8662 122.734C64.8662 124.069 63.9764 124.958 62.8643 124.958C58.1932 125.181 54.4119 126.515 51.9651 127.627C51.0754 128.072 50.6305 128.74 50.4081 129.407C50.1856 130.297 50.4081 130.964 51.0754 131.631C53.967 134.523 57.9708 137.415 61.0848 139.861C61.9745 140.529 62.6418 140.973 63.3091 141.418C64.1989 142.086 65.5335 142.53 66.6456 142.308C67.7578 142.086 68.8699 141.418 69.3148 140.529C72.8737 135.413 75.098 128.962 76.2102 125.181L76.4326 124.291C77.0999 122.067 76.8775 120.732 75.098 119.398C66.868 112.502 60.6399 108.943 56.8586 107.164C55.0792 106.274 53.0773 106.274 51.5202 107.164C41.2884 112.28 35.5051 122.734 33.0584 128.517C31.9462 131.186 32.1687 134.078 33.7257 136.525C39.2865 144.532 49.7408 152.095 53.7446 154.987C61.7521 160.547 71.7616 163.217 81.5486 162.549C102.012 161.215 118.25 156.321 128.259 152.54C140.048 148.091 149.39 138.749 153.617 126.96C159.845 109.833 160.512 90.4814 160.289 77.3579C160.067 66.6811 154.729 56.6717 146.054 51.1109C141.383 47.9968 136.712 45.5501 132.041 43.5482C133.153 43.7706 121.586 64.2344 103.347 76.0233Z" fill="url(#paint0_linear)"/>
<path d="M98.8983 36.2081C100.455 47.3297 101.79 58.2289 102.902 70.2402C103.213 73.6015 103.262 74.3608 103.352 76.0186C115.572 68.1042 128.938 54.1894 132.296 43.6589C130.549 42.8681 128.482 41.9914 128.482 41.9914C128.482 41.9914 116.248 36.4306 98.8983 36.2081Z" fill="url(#paint1_linear)"/>
<path d="M104.106 88.3747C103.563 77.9385 103.13 71.8813 101.869 60.3026L124.529 40.4573C140.597 47.0916 145.852 50.4167 151.663 55.9727L104.106 88.3747Z" fill="url(#paint2_radial)"/>
<path d="M95.1519 75.8814C92.0379 53.8606 88.0341 27.6136 83.8079 14.4902C83.1406 12.4883 81.806 10.7088 80.0266 10.0415C79.1368 9.59665 77.5798 9.37422 75.8004 10.4864C71.1293 13.378 66.4582 17.1593 62.232 21.608C74.6882 25.8342 83.8079 37.4007 83.8079 51.4139C83.8079 57.8644 82.9182 64.7598 79.1368 70.0982C75.8004 74.9917 57.3385 81.2197 45.3272 81.2197C41.7683 81.2197 38.6542 80.7749 36.4299 79.4403C29.7569 75.659 25.0859 68.7636 22.6391 61.2009C16.8559 68.986 13.297 74.3244 10.4054 79.6627C9.96049 80.5525 9.73805 81.4422 10.1829 82.5543C10.4054 83.4441 11.2951 84.3338 12.1848 84.5562C23.084 89.0049 35.7626 90.3395 46.2169 90.3395C62.8993 90.3395 83.363 84.1114 95.1519 75.8814Z" fill="url(#paint3_linear)"/>
<path d="M95.8201 80.7747C82.0293 90.1169 64.4572 95.9001 46.2177 95.9001C42.8813 95.9001 39.3223 95.6777 35.7634 95.2328C48.4421 100.126 69.5731 105.91 97.5995 106.354C97.3771 99.9039 97.1547 90.5617 95.8201 80.7747Z" fill="url(#paint4_linear)"/>
<path d="M38.8775 74.3245C45.9953 78.5507 71.3526 71.4329 74.6891 66.7618C77.8031 62.0907 79.5826 56.7524 79.5826 51.414C79.5826 36.5111 67.5712 24.4997 52.6683 24.4997C37.7654 24.4997 25.754 36.5111 25.754 51.414C25.754 60.7562 30.87 69.6534 38.8775 74.3245Z" fill="white"/>
<path d="M45.1047 128.598C45.5496 126.374 47.1066 124.372 49.1085 123.482C53.1122 121.703 58.673 121.258 62.8993 121.035C64.0114 121.035 65.1236 121.925 65.1236 123.037C65.1236 124.372 64.2338 125.261 63.1217 125.261C58.4506 125.484 54.6693 126.818 52.2225 127.931C51.3328 128.375 50.8879 129.043 50.6655 129.71C50.4431 130.6 50.6655 131.267 51.3328 131.934C54.2244 134.826 58.2282 137.718 61.3422 140.164C62.232 140.832 62.8992 141.277 63.5665 141.721C64.4563 142.389 65.7909 142.834 66.903 142.611C68.0152 142.389 69.1273 141.721 69.5722 140.832C73.1311 135.716 75.3554 129.265 76.4676 125.484L76.69 124.594C77.3573 122.37 77.1349 121.035 75.3554 119.701C67.1255 112.805 60.8974 109.246 57.116 107.467C55.3366 106.577 53.3347 106.577 51.7777 107.467C41.5458 112.583 35.7625 123.037 33.3158 128.82" fill="url(#paint5_linear)"/>
<path d="M89.3694 142.611C92.2611 137.718 96.9321 128.82 97.377 112.138C87.1451 111.915 78.0254 111.026 69.573 109.691C72.9095 111.915 76.4684 114.362 79.8049 117.254C82.9189 119.923 83.8086 123.037 82.4741 127.041L82.2516 127.931C81.5843 130.377 80.2497 133.936 78.4703 137.718" fill="url(#paint6_linear)"/>
<path d="M130.742 108.802C130.742 109.024 128.962 124.372 133.633 131.934C134.3 133.047 135.413 133.269 135.858 133.269C136.747 133.269 137.637 132.824 138.082 131.934C140.084 128.598 142.753 121.703 143.865 113.028" fill="url(#paint7_linear)"/>
<path d="M104.273 110.581C103.16 129.71 96.4874 139.497 93.3734 145.058C93.151 145.503 93.3734 145.947 93.3734 146.17C93.5958 146.392 93.8183 146.615 94.4856 146.615L95.3753 146.392C105.607 143.056 112.28 133.714 114.949 121.702C115.172 120.59 115.394 119.256 115.617 117.699" fill="url(#paint8_linear)"/>
<path d="M58.743 51.8566C61.6913 51.8566 64.0814 49.4666 64.0814 46.5183C64.0814 43.57 61.6913 41.1799 58.743 41.1799C55.7947 41.1799 53.4047 43.57 53.4047 46.5183C53.4047 49.4666 55.7947 51.8566 58.743 51.8566Z" fill="#211D70"/>
<path fill-rule="evenodd" clip-rule="evenodd" d="M166.312 76.0694C165.867 63.8356 159.417 52.4916 149.63 46.041C145.181 43.1494 140.955 40.7027 136.506 38.9232L135.839 38.7008C135.844 38.6904 135.85 38.6799 135.856 38.6695L131.063 36.5902L131.063 36.5825C130.774 36.4699 130.479 36.3668 130.169 36.2591C129.786 36.1255 129.382 35.9846 128.943 35.8092L124.717 34.4746C110.259 30.2484 98.0254 30.0259 92.9095 30.2484C91.5749 23.5754 90.0179 17.7922 88.6833 13.3435C87.5711 10.0071 85.1244 7.33787 82.2327 6.22571C79.5636 5.11355 76.672 5.55841 74.2252 6.893C67.7747 10.6743 61.9914 15.7903 57.5428 20.6838C55.9858 20.4614 54.4288 20.2389 52.6493 20.2389C35.2996 20.2389 21.2864 34.2521 21.2864 51.6018C21.2864 52.9364 21.2864 54.4935 21.5088 55.828C14.1686 65.6151 9.94236 71.6207 6.60588 77.6264C5.49372 79.6283 5.27129 81.8526 5.93859 84.0769C6.60588 86.3012 8.38534 87.8583 10.3872 88.748C13.2788 89.8602 16.1705 90.9723 19.2845 91.862C21.2864 93.1966 30.4061 98.9799 45.7539 104.096C35.7445 110.101 30.1837 121.001 27.5145 127.006C25.735 131.01 26.1799 135.681 28.6266 139.24C34.4575 147.662 46.788 155.665 51.5723 158.77L51.982 159.036C59.9896 164.597 69.7766 167.489 79.5636 167.489H82.6776C103.809 166.154 121.381 162.151 131.613 158.147C144.736 153.253 154.968 142.799 159.639 129.898C166.312 112.103 166.757 89.6377 166.312 76.0694ZM103.141 70.731L103.148 70.7261L103.598 76.2845L103.586 76.2918C104.698 89.6377 104.698 102.984 104.254 110.546C103.224 128.455 97.4327 138.172 94.1066 143.753C93.8386 144.202 93.5866 144.625 93.3543 145.023C92.9095 145.468 93.1319 145.913 93.3543 146.135C93.3543 146.358 93.7992 146.803 94.4665 146.58L95.3562 146.358C105.588 143.021 112.261 133.679 114.93 121.668C115.598 118.109 116.042 113.216 116.042 109.657C116.042 108.544 116.932 107.655 118.044 107.432L128.276 106.543C128.943 106.543 129.611 106.765 130.056 107.21C130.5 107.655 130.723 108.322 130.723 108.989C130.723 109.002 130.718 109.06 130.71 109.161C130.57 110.886 129.424 124.966 133.837 131.9C134.504 133.012 135.616 133.234 136.061 133.234C136.951 133.234 137.841 132.79 138.286 131.9C140.732 127.674 144.514 117.219 144.514 105.208C144.514 103.873 145.403 102.984 146.738 102.984C146.738 102.984 152.299 102.094 152.521 104.763C152.521 106.543 150.742 107.877 149.407 108.544C148.74 119.444 144.959 129.231 141.845 134.347C140.732 136.571 138.286 137.905 135.839 137.905C133.392 137.905 131.168 136.793 129.833 134.569C125.829 127.896 125.385 117.219 125.385 112.326L121.381 112.771C121.158 116.107 120.713 119.221 120.046 122.558C117.155 136.348 108.257 146.58 96.6908 150.584L95.8011 150.807C95.1339 151.029 94.689 151.029 94.0218 151.029H94.0216C92.4646 151.029 90.9076 150.362 89.7954 149.027C88.4608 147.248 88.2384 144.801 89.3506 142.799C92.2422 137.905 96.9133 129.008 98.6927 112.548C88.4608 112.326 79.1187 111.436 70.8887 110.101C74.2252 112.326 77.7841 114.773 81.1206 117.664C84.2346 120.333 85.1244 123.447 83.7898 127.451L83.5673 128.341L83.434 128.742C82.0859 132.793 79.8779 139.429 76.0047 145.023C74.6701 147.025 72.4457 148.137 70.2214 148.582C67.7747 149.027 64.2158 147.47 62.2139 146.135L62.2135 146.135C61.5463 145.69 60.8791 145.246 59.9896 144.578C59.2182 144.013 58.328 143.388 57.3767 142.72C54.2128 140.498 50.3724 137.801 47.9782 135.236C46.4212 133.457 45.7539 131.233 46.1988 129.008C46.6436 126.784 48.2007 124.782 50.2025 123.892C54.2063 122.113 59.7671 121.668 63.9933 121.445C65.1055 121.223 66.2177 122.113 66.2177 123.447C66.4401 124.56 65.5504 125.672 64.2158 125.672C59.5447 125.894 55.7633 127.229 53.3166 128.341C52.4269 128.563 51.982 129.231 51.7596 130.12C51.5371 131.01 51.7596 131.677 52.4269 132.345C55.0961 135.459 59.0998 138.35 62.4363 140.575C63.0067 140.86 63.4857 141.236 63.9319 141.587C64.1817 141.784 64.4211 141.972 64.6606 142.132C65.5504 143.021 66.8849 143.244 67.9971 143.021C69.1093 142.799 69.999 142.132 70.6663 141.242C73.8264 136.699 75.7589 131.104 77.0867 127.26C77.2542 126.775 77.4121 126.318 77.5617 125.894L77.7841 125.004C78.4514 122.78 78.229 121.445 76.4495 120.111C68.2195 113.216 61.9914 109.657 58.2101 107.877C56.4306 107.21 54.4288 106.987 52.8717 107.877C42.6399 112.993 36.8566 123.447 34.4099 129.231C33.0753 131.9 33.5202 135.014 35.0772 137.238C40.638 145.246 50.8698 152.808 55.0961 155.7C63.1036 161.261 72.8906 163.93 82.9 163.263C103.364 161.928 119.601 157.035 129.611 153.253C141.4 148.805 150.742 139.462 154.968 127.674C160.974 110.546 161.863 91.1947 161.641 77.8488C161.419 67.1721 156.08 57.3851 147.405 51.6018C142.734 48.4878 138.063 46.041 133.392 44.0391L133.381 44.0584L127.19 41.8436L127.18 41.8518C123.378 40.389 112.858 36.8748 99.1376 36.6989L99.308 37.9152C100.807 48.6172 102.284 59.1578 103.141 70.731ZM52.6493 24.6876C67.5522 24.6876 79.5636 36.6989 79.5636 51.6018C79.5636 57.1626 77.7841 62.501 74.6701 66.9496C71.3336 71.6207 45.9763 78.7385 38.8585 74.5123C30.851 69.8413 25.735 60.944 25.735 51.3794C25.735 36.6989 37.7464 24.6876 52.6493 24.6876ZM12.3891 84.7442C11.4994 84.2993 10.8321 83.6321 10.3872 82.7423C10.1648 81.8526 10.1648 80.7404 10.6097 79.8507C13.5013 74.7348 17.0602 69.3964 22.8434 61.3888C25.0677 68.9515 29.9612 75.6245 36.6342 79.6283C38.8585 80.9629 41.9726 81.4077 45.5315 81.4077C57.5428 81.4077 76.0046 74.9572 79.3411 70.2861C83.1225 64.9478 84.0122 57.8299 84.0122 51.6018C84.0122 37.8111 74.8925 26.0222 62.4363 21.7959C66.6625 17.3473 71.3336 13.566 76.0047 10.6743C77.7841 9.56219 79.1187 9.78462 80.2309 10.2295C82.0103 10.8968 83.3449 12.4538 84.0122 14.6781C88.016 27.8016 92.2422 54.0486 95.3562 76.0694C83.3449 84.2993 63.1036 90.5275 46.6436 90.5275C35.9669 90.5275 23.2883 89.1929 12.3891 84.7442ZM35.7445 95.421C39.3034 95.8658 42.8623 96.0882 46.1988 96.0882C64.6606 96.0882 82.0103 90.0826 95.8011 80.9629C96.8146 89.6787 97.0892 98.2099 97.2983 104.705V104.705C97.3186 105.337 97.3384 105.95 97.3581 106.543C69.5541 106.32 48.4231 100.314 35.7445 95.421Z" fill="#211D70"/>
<path fill-rule="evenodd" clip-rule="evenodd" d="M135.566 39.9618C139.094 33.3203 141.96 25.8047 143.728 18.0695C144.173 16.9573 143.506 15.6227 142.171 15.4003C141.059 15.1778 139.947 15.8451 139.502 16.9573C137.722 24.52 134.831 31.8602 131.494 38.3108C131.489 38.3081 131.484 38.3055 131.478 38.3028L128.374 43.8687C128.378 43.8706 128.38 43.8716 128.38 43.8716C128.38 43.8716 119.038 60.1091 102.801 72.1204C102.78 71.8369 102.758 71.554 102.737 71.2718L102.723 71.3162L103.249 77.6792C121.032 66.1836 132.471 46.4424 133.03 45.4662L133.026 45.4517L135.532 39.9815L135.566 39.9618Z" fill="#211D70"/>
<defs>
<linearGradient id="paint0_linear" x1="138.961" y1="39.3276" x2="67.9464" y2="180.133" gradientUnits="userSpaceOnUse">
<stop stop-color="#00AEEF"/>
<stop offset="0.467" stop-color="#F5989D"/>
<stop offset="0.948" stop-color="#92278F"/>
</linearGradient>
<linearGradient id="paint1_linear" x1="134.699" y1="46.2979" x2="92.1159" y2="54.9723" gradientUnits="userSpaceOnUse">
<stop offset="0.000294116" stop-color="#00AEEF"/>
<stop offset="0.7516" stop-color="#ED8F9D"/>
</linearGradient>
<radialGradient id="paint2_radial" cx="0" cy="0" r="1" gradientUnits="userSpaceOnUse" gradientTransform="translate(106.993 72.7871) rotate(-39.4281) scale(45.7744 10.422)">
<stop stop-color="#AC9EB5"/>
<stop offset="1" stop-color="#83A2C3" stop-opacity="0"/>
</radialGradient>
<linearGradient id="paint3_linear" x1="30.1157" y1="36.1134" x2="102.765" y2="86.5232" gradientUnits="userSpaceOnUse">
<stop offset="0.000294116" stop-color="#00AEEF"/>
<stop offset="0.7516" stop-color="#ED8F9D"/>
</linearGradient>
<linearGradient id="paint4_linear" x1="74.2059" y1="123.176" x2="65.741" y2="87.8441" gradientUnits="userSpaceOnUse">
<stop offset="0.2379" stop-color="#AE4993"/>
<stop offset="1" stop-color="#00BDF2"/>
</linearGradient>
<linearGradient id="paint5_linear" x1="38.4831" y1="129.365" x2="69.5827" y2="123.365" gradientUnits="userSpaceOnUse">
<stop offset="0.2379" stop-color="#AE4993"/>
<stop offset="1" stop-color="#00BDF2"/>
</linearGradient>
<linearGradient id="paint6_linear" x1="73.9485" y1="134.833" x2="91.184" y2="108.36" gradientUnits="userSpaceOnUse">
<stop offset="0.3453" stop-color="#BA5A95"/>
<stop offset="1" stop-color="#782A81"/>
</linearGradient>
<linearGradient id="paint7_linear" x1="136.471" y1="134.617" x2="137.306" y2="112.917" gradientUnits="userSpaceOnUse">
<stop offset="0.000294116" stop-color="#00AEEF"/>
<stop offset="0.924" stop-color="#D89EA8"/>
</linearGradient>
<linearGradient id="paint8_linear" x1="101.811" y1="145.35" x2="107.67" y2="113.351" gradientUnits="userSpaceOnUse">
<stop offset="0.000294116" stop-color="#00AEEF"/>
<stop offset="0.7516" stop-color="#ED8F9D"/>
</linearGradient>
</defs>
</svg>
