<!-- Generator: Adobe Illustrator 21.0.0, SVG Export Plug-In  -->
<svg version="1.1"
	 xmlns="http://www.w3.org/2000/svg" xmlns:xlink="http://www.w3.org/1999/xlink" xmlns:a="http://ns.adobe.com/AdobeSVGViewerExtensions/3.0/"
	 x="0px" y="0px" width="130.5px" height="33.6px" viewBox="0 0 130.5 33.6" style="enable-background:new 0 0 130.5 33.6;"
	 xml:space="preserve">
<style type="text/css">
	.st0{fill:#FFFFFF;}
</style>
<defs>
</defs>
<g>
	<path class="st0" d="M13.9,12.1L20,0.5h7.6l-9.7,16.2l10.3,16.5h-7.9L14,21.4L7.7,33.2H0l10-16.5L0.2,0.5h7.6L13.9,12.1z"/>
	<path class="st0" d="M57.5,19.8c0,4-1.3,7.3-3.8,10c-2.5,2.6-5.8,3.9-9.9,3.9c-4,0-7.3-1.3-9.8-3.9s-3.8-5.9-3.8-10v-5.9
		c0-4,1.3-7.3,3.8-9.9C36.5,1.3,39.7,0,43.8,0c4.1,0,7.4,1.3,9.9,3.9c2.5,2.6,3.8,5.9,3.8,9.9V19.8z M50.9,13.8
		c0-2.5-0.6-4.6-1.9-6.3c-1.3-1.6-3-2.4-5.3-2.4c-2.2,0-3.9,0.8-5.2,2.4s-1.9,3.7-1.9,6.3v5.9c0,2.6,0.6,4.7,1.9,6.3
		c1.2,1.6,3,2.4,5.2,2.4c2.2,0,4-0.8,5.3-2.4s1.9-3.7,1.9-6.3V13.8z"/>
	<path class="st0" d="M88.6,0.5v32.7H82V20.6c-1,0.2-2.1,0.4-3.3,0.5c-1.2,0.1-2.3,0.2-3.3,0.2c-4,0-7.1-0.9-9.3-2.6
		c-2.2-1.7-3.3-4.4-3.3-8.1V0.5h6.6v10.2c0,2.1,0.5,3.6,1.4,4.4c1,0.8,2.5,1.2,4.6,1.2c0.9,0,2-0.1,3.3-0.2c1.3-0.1,2.4-0.3,3.4-0.6
		v-15H88.6z"/>
	<path class="st0" d="M105.9,15l0.6,2l0.1,0l6.9-16.5h6.9L108.5,27c-0.9,2.1-2.1,3.8-3.4,4.9c-1.3,1.2-3.2,1.8-5.6,1.8
		c-0.9,0-1.7-0.1-2.4-0.2c-0.7-0.2-1.5-0.4-2.4-0.7l0.8-4.7c0.7,0.2,1.3,0.3,1.8,0.4c0.5,0.1,1,0.1,1.6,0.1c1.2,0,2.2-0.3,2.8-0.8
		c0.7-0.5,1.2-1.3,1.5-2.4l0.5-1.2L92.1,0.5h7.1L105.9,15z"/>
	<path class="st0" d="M130.5,21.9H124V0.5h6.6V21.9z M130.5,33.2H124v-5.8h6.6V33.2z"/>
</g>
</svg>
