<!-- Generator: Adobe Illustrator 21.0.0, SVG Export Plug-In  -->
<svg version="1.1"
	 xmlns="http://www.w3.org/2000/svg" xmlns:xlink="http://www.w3.org/1999/xlink" xmlns:a="http://ns.adobe.com/AdobeSVGViewerExtensions/3.0/"
	 x="0px" y="0px" width="177.5px" height="99.2px" viewBox="0 0 177.5 99.2" style="enable-background:new 0 0 177.5 99.2;"
	 xml:space="preserve">
<style type="text/css">
	.st0{fill:#FFFFFF;}
</style>
<defs>
</defs>
<g>
	<g>
		<path class="st0" d="M31.3,99.1H1.1l13.1-52.8l3-8l-8,7.8l-8.9,9L0,28.8L31.3,0h24.4L31.3,99.1z"/>
	</g>
	<g>
		<path class="st0" d="M140.4,58.1l-9.6-16.3L177.5,0L134,0l-17.9,17.1L116,17L55.9,72.3L27,99.1l41.2,0l31-27.6l10.4,17.7
			c3.4,4.5,8.6,9.9,29.8,9.9h25L140.4,58.1L140.4,58.1z"/>
		<path class="st0" d="M112.9,11.6l-0.1-0.2C105.7,1.2,94.8,0,89.3,0c-1.7-0.1-2.7,0-2.7,0H57.1l24,40.8L112.9,11.6z"/>
	</g>
</g>
</svg>
