<?xml version="1.0" encoding="utf-8"?>
<!-- Generator: Adobe Illustrator 19.2.1, SVG Export Plug-In . SVG Version: 6.00 Build 0)  -->
<svg version="1.1" id="Layer_1" xmlns="http://www.w3.org/2000/svg" xmlns:xlink="http://www.w3.org/1999/xlink" x="0px" y="0px"
	 viewBox="0 0 447.9 107.7" style="enable-background:new 0 0 447.9 107.7;" xml:space="preserve">
<style type="text/css">
	.st0{fill:#14A0FF;}
	.st1{fill:#FFFFFF;}
</style>
<path class="st0" d="M258,35c3.8-15.3-5.5-27.9-28.2-27.9l-49.2,0.1l-18.4,74.5l10.7,18.2h35c22.9,0,40.8-10.6,45.4-29.2
	c2.3-9.5-0.2-16.1-6.2-19.4v-0.2C252.9,47.3,256.4,41.4,258,35z M227.7,70c-0.9,3.9-3.6,7.9-14.5,7.9h-22.3l3.9-16h22.2
	C228,61.9,228.8,66,227.7,70z M232.3,35.2c-0.8,3-3.1,6.6-12.5,6.6h-20l3.3-13h20C232.7,28.9,233.1,31.9,232.3,35.2z"/>
<g>
	<polygon class="st0" points="288.8,63.9 333.6,63.9 338.7,41.9 294.2,41.9 297.7,28.9 341.8,28.9 346.9,6.9 274.5,6.9 251.6,99.9 
		333.5,99.9 338.9,77.9 285.5,77.9 	"/>
	<polygon class="st0" points="353.1,6.9 348,28.9 374.8,28.9 357.2,99.9 385.3,99.9 402.9,28.9 431.5,28.9 437.1,6.9 	"/>
</g>
<g>
	<path class="st1" d="M41.2,100.1H12.9l12.3-49.5l2.8-7.5l-7.5,7.3l-8.3,8.5l-0.3-24.8l29.4-27h22.9L41.2,100.1z"/>
</g>
<g>
	<path class="st1" d="M143.6,61.6l-9-15.3l43.8-39.2l-40.8,0l-16.8,16l-0.1-0.1L64.3,74.9l-27.1,25.2l38.6,0l29-25.9l9.8,16.5
		c3.2,4.2,8,9.2,28,9.2H166l-22.4-38.4L143.6,61.6z"/>
	<path class="st1" d="M117.7,18l-0.1-0.2C111,8.2,100.8,7,95.6,7C94,7,93,6.9,93,6.9H65.4l22.5,38.4L117.7,18z"/>
</g>
</svg>
