<?xml version="1.0" encoding="utf-8"?>
<!-- Generator: Adobe Illustrator 19.2.1, SVG Export Plug-In . SVG Version: 6.00 Build 0)  -->
<svg version="1.1" id="Layer_1" xmlns="http://www.w3.org/2000/svg" xmlns:xlink="http://www.w3.org/1999/xlink" x="0px" y="0px"
	 viewBox="0 0 264.3 41" style="enable-background:new 0 0 264.3 41;" xml:space="preserve">
<style type="text/css">
	.st0{fill:#FFFFFF;}
</style>
<g>
	<g>
		<path class="st0" d="M18.2,26h-4.8c-0.3,1.7-0.7,2.8-1.4,3.5c-0.6,0.7-1.6,1-2.8,1c-1.4,0-2.3-0.4-2.8-1.3
			c-0.5-0.9-0.7-2.3-0.4-4.2l1.1-7.6c0.3-1.8,0.8-3.2,1.6-4.1c0.8-0.9,1.8-1.4,3-1.4c1.4,0,2.3,0.3,2.8,0.9c0.5,0.6,0.6,1.8,0.3,3.5
			h4.8l0-0.1c0.5-2.7,0-4.8-1.3-6.2C17.1,8.7,15.1,8,12.4,8c-2.7,0-4.9,0.8-6.7,2.4c-1.8,1.6-2.9,3.9-3.4,7L1.2,25
			c-0.4,3,0,5.3,1.5,6.9c1.4,1.6,3.4,2.5,6.1,2.5c2.7,0,4.9-0.7,6.5-2c1.6-1.3,2.6-3.4,3-6.2L18.2,26z M27.1,8.4l-2,10.3
			c-0.7,4-1.5,6.9-2.2,8.8c-0.7,1.8-1.6,2.7-2.7,2.7h-1.3l-1.5,10.1h4.9l0.9-6.3h12.3l-0.9,6.3h4.9l1.5-10.1h-2.6l3.2-21.7H27.1z
			 M33.6,30.1H26c0.9-1.3,1.6-2.9,2.3-4.8c0.7-1.9,1.2-4.1,1.7-6.7l1.2-6.4h5L33.6,30.1z M56.7,22.7l0.6-3.9h-7.8l1-6.5h9.3l0.6-3.9
			H46.1L42.3,34h14.3l0.6-3.9h-9.3l1.1-7.4H56.7z M66.2,8.4l-1.7,11.5c-0.6,3.9-1.2,6.6-1.9,8c-0.7,1.4-1.7,2.2-3,2.2h-0.6L58.5,34
			h0.6c2.8,0,5-1.1,6.7-3.3c1.7-2.2,2.9-5.8,3.6-10.8l1.1-7.6h5.6L72.9,34h4.9l3.8-25.6H66.2z M91.5,8.4L80.4,34h5.2l2.3-5.5h6.4
			l0.6,5.5h5.2L96.6,8.4H91.5z M89.5,24.5l3.3-8.1l0.1,0l0.9,8.1H89.5z M119,8.4h-16.8l-0.6,3.9h5.8L104.2,34h5l3.2-21.7h6L119,8.4z
			 M128.6,17.4h-3.4l1.4-9h-5L117.8,34h8.3c2.6,0,4.8-0.7,6.5-2.2c1.8-1.5,2.8-3.5,3.2-6c0.4-2.4-0.2-4.4-1.5-5.9
			C133,18.2,131.1,17.4,128.6,17.4z M131,25.6c-0.2,1.2-0.7,2.3-1.4,3.2c-0.8,0.9-1.7,1.3-2.8,1.3h-3.4l1.3-8.8h3.4
			c1.1,0,1.9,0.4,2.4,1.2C131,23.3,131.1,24.4,131,25.6z M157.5,8c-2.7,0-4.9,0.8-6.7,2.4c-1.8,1.6-2.9,3.9-3.4,7l-1.1,7.6
			c-0.4,3,0,5.3,1.5,6.9c1.4,1.6,3.4,2.5,6.1,2.5c2.7,0,4.9-0.7,6.5-2c1.6-1.3,2.6-3.4,3-6.2l0-0.1h-4.8c-0.3,1.7-0.7,2.8-1.4,3.5
			c-0.6,0.7-1.6,1-2.8,1c-1.4,0-2.3-0.4-2.8-1.3c-0.5-0.9-0.7-2.3-0.4-4.2l1.1-7.6c0.3-1.8,0.8-3.2,1.6-4.1c0.8-0.9,1.8-1.4,3-1.4
			c1.4,0,2.3,0.3,2.8,0.9c0.5,0.6,0.6,1.8,0.3,3.5h4.8l0-0.1c0.5-2.7,0-4.8-1.3-6.2C162.3,8.7,160.2,8,157.5,8z M184,8.4h-16.8
			l-0.6,3.9h5.8L169.2,34h5l3.2-21.7h6L184,8.4z M190.6,8.4L179.6,34h5.2l2.3-5.5h6.4L194,34h5.2l-3.4-25.6H190.6z M188.6,24.5
			l3.3-8.1l0.1,0l0.9,8.1H188.6z M218.3,10.1c-1.4-1.2-3.3-1.8-5.9-1.8h-7.3L201.2,34h8.6c2.7,0,4.8-0.6,6.4-1.8
			c1.6-1.2,2.6-3.1,3-5.6c0.2-1.4,0-2.6-0.5-3.7c-0.5-1.1-1.5-1.8-2.8-2.1c1.1-0.4,2-1.1,2.7-2.1c0.7-0.9,1.1-2,1.3-3.3
			C220.1,13,219.6,11.3,218.3,10.1z M214.2,26.5c-0.2,1.2-0.6,2.1-1.3,2.7c-0.7,0.6-1.5,0.9-2.6,0.9h-3.6l1.1-7.5h3.6
			c1.1,0,1.9,0.3,2.3,1C214.2,24.2,214.4,25.2,214.2,26.5z M214.8,15.8c-0.2,1.1-0.6,1.9-1.3,2.5c-0.7,0.6-1.6,0.9-2.6,0.9h-2.5
			l1.1-6.9h2.4c1.2,0,2,0.3,2.5,0.8C214.8,13.6,215,14.5,214.8,15.8z M242,8.4h-6.5l-5.8,10.5h-1.4L230,8.4h-5L221.2,34h5l1.6-10.7
			h1.3l3.7,10.7h5.7l-5.1-12.9L242,8.4z M257.6,8.4l-6.2,12.4l-0.1,0l-0.1-0.6l-2.5-11.7h-5.3l5,18.6l-0.4,0.9
			c-0.4,0.9-0.8,1.5-1.2,1.9c-0.5,0.4-1.1,0.7-1.9,0.7c-0.4,0-0.7,0-1-0.1c-0.3-0.1-0.7-0.2-1.1-0.4l-1.1,3.6
			c0.6,0.3,1.1,0.4,1.6,0.6c0.4,0.1,1,0.2,1.6,0.2c1.6,0,3-0.5,4-1.4c1-0.9,2-2.2,3-3.9l11-20.7H257.6z"/>
	</g>
</g>
</svg>
