<?xml version="1.0" encoding="utf-8"?>
<!-- Generator: Adobe Illustrator 19.2.1, SVG Export Plug-In . SVG Version: 6.00 Build 0)  -->
<svg version="1.1" id="Layer_1" xmlns="http://www.w3.org/2000/svg" xmlns:xlink="http://www.w3.org/1999/xlink" x="0px" y="0px"
	 viewBox="0 0 255 28" style="enable-background:new 0 0 255 28;" xml:space="preserve">
<style type="text/css">
	.st0{fill:#FFFFFF;}
</style>
<g>
	<g>
		<path class="st0" d="M23.9,1.1h-5.7l-5,9.1l-0.1,0l-2.2-9.1H5.1l4.5,12.7L1.2,26.7h5.8l5.1-9.2l0.1,0l2.4,9.2h6l-4.8-12.9
			L23.9,1.1z M34.9,0.8c-2.9,0-5.2,0.8-7.1,2.5c-1.9,1.6-3.1,4-3.6,7.1l-1.1,7.1c-0.5,3,0.1,5.3,1.5,7c1.5,1.7,3.6,2.6,6.3,2.6
			c2.9,0,5.2-0.8,7.2-2.4c1.9-1.6,3.1-4,3.6-7.1l1.1-7.1c0.4-3-0.1-5.3-1.6-7C39.7,1.6,37.6,0.8,34.9,0.8z M37.9,10.3l-1.1,7.2
			c-0.3,1.9-0.9,3.3-1.8,4.3c-0.9,1-2.1,1.4-3.4,1.4c-1.5,0-2.5-0.5-3.1-1.4c-0.6-0.9-0.7-2.4-0.4-4.3l1.1-7.2
			c0.3-1.9,0.9-3.3,1.8-4.2c0.9-1,2-1.4,3.4-1.4c1.4,0,2.5,0.5,3.1,1.4C38,7,38.1,8.4,37.9,10.3z M58.8,12.9
			c-0.6,0.2-1.4,0.3-2.2,0.4c-0.8,0.1-1.5,0.1-2,0.1c-1.4,0-2.3-0.3-2.8-0.9c-0.5-0.6-0.6-1.8-0.4-3.6l1.2-7.8h-4.9l-1.2,7.8
			c-0.4,2.8,0.1,4.9,1.4,6.3c1.4,1.4,3.4,2.1,6.1,2.1c0.5,0,1.2,0,2-0.1c0.8-0.1,1.5-0.2,2.2-0.4l-1.5,10h4.9l3.8-25.6h-4.9
			L58.8,12.9z M75.8,13.5l-0.1,0l-0.1-0.6L73.1,1.1h-5.3l5,18.6l-0.4,0.9c-0.4,0.9-0.8,1.5-1.2,1.9c-0.5,0.4-1.1,0.7-1.9,0.7
			c-0.4,0-0.7,0-1-0.1c-0.3-0.1-0.7-0.2-1.1-0.4l-1.1,3.6c0.6,0.3,1.1,0.4,1.6,0.6c0.4,0.1,1,0.2,1.6,0.2c1.6,0,3-0.5,4-1.4
			c1-0.9,2-2.2,3-3.9l11-20.7H82L75.8,13.5z M105.6,0.8c-2.7,0-4.9,0.8-6.7,2.4c-1.8,1.6-2.9,3.9-3.4,7l-1.1,7.6
			c-0.4,3,0,5.3,1.5,6.9c1.4,1.6,3.4,2.5,6.1,2.5c2.7,0,4.9-0.7,6.5-2c1.6-1.3,2.6-3.4,3-6.2l0-0.1h-4.8c-0.3,1.7-0.7,2.8-1.4,3.5
			c-0.6,0.7-1.6,1-2.8,1c-1.4,0-2.3-0.4-2.8-1.3c-0.5-0.9-0.7-2.3-0.4-4.2l1.1-7.6c0.3-1.8,0.8-3.2,1.6-4.1c0.8-0.9,1.8-1.4,3-1.4
			c1.4,0,2.3,0.3,2.8,0.9c0.5,0.6,0.6,1.8,0.3,3.5h4.8l0-0.1c0.5-2.7,0-4.8-1.3-6.2C110.3,1.4,108.3,0.8,105.6,0.8z M113.4,26.7h4.9
			L121.6,5h8.2l-3.2,21.7h4.9l3.8-25.6h-18.1L113.4,26.7z M148.1,0.8c-2.9,0-5.2,0.8-7.1,2.5c-1.9,1.6-3.1,4-3.6,7.1l-1.1,7.1
			c-0.5,3,0.1,5.3,1.5,7c1.5,1.7,3.6,2.6,6.3,2.6c2.9,0,5.2-0.8,7.2-2.4c1.9-1.6,3.1-4,3.6-7.1l1.1-7.1c0.4-3-0.1-5.3-1.6-7
			C152.9,1.6,150.8,0.8,148.1,0.8z M151.1,10.3l-1.1,7.2c-0.3,1.9-0.9,3.3-1.8,4.3c-0.9,1-2.1,1.4-3.4,1.4c-1.5,0-2.5-0.5-3.1-1.4
			c-0.6-0.9-0.7-2.4-0.4-4.3l1.1-7.2c0.3-1.9,0.9-3.3,1.8-4.2c0.9-1,2-1.4,3.4-1.4c1.4,0,2.5,0.5,3.1,1.4
			C151.2,7,151.4,8.4,151.1,10.3z M169.4,1.1h-8.5L157,26.7h4.9l1.4-9.3h3.6c2.6,0,4.7-0.7,6.4-2.2c1.7-1.4,2.7-3.4,3.1-6
			c0.4-2.4-0.1-4.4-1.4-5.9C173.7,1.9,171.8,1.1,169.4,1.1z M171.6,9.3c-0.2,1.2-0.6,2.2-1.4,3c-0.7,0.8-1.6,1.2-2.7,1.2h-3.6
			l1.3-8.6h3.6c1.1,0,1.9,0.4,2.4,1.2C171.6,7,171.8,8,171.6,9.3z M196.2,1.1h-16.8L178.9,5h5.8l-3.2,21.7h5L189.7,5h6L196.2,1.1z
			 M215.6,1.1h-6.5l-5.8,10.5H202l1.6-10.5h-5l-3.8,25.6h5l1.6-10.7h1.3l3.7,10.7h5.7L207,13.8L215.6,1.1z M224.3,1.1l-11.1,25.6
			h5.2l2.3-5.5h6.4l0.6,5.5h5.2l-3.4-25.6H224.3z M222.2,17.3l3.3-8.1l0.1,0l0.9,8.1H222.2z M252.9,3.4c-1.3-1.5-3.2-2.3-5.7-2.3
			h-8.5l-3.8,25.6h4.9l1.4-9.3h3.6c2.6,0,4.7-0.7,6.4-2.2c1.7-1.4,2.7-3.4,3.1-6C254.7,6.9,254.2,4.9,252.9,3.4z M249.4,9.3
			c-0.2,1.2-0.6,2.2-1.4,3c-0.7,0.8-1.6,1.2-2.7,1.2h-3.6l1.3-8.6h3.6c1.1,0,1.9,0.4,2.4,1.2C249.5,7,249.6,8,249.4,9.3z"/>
	</g>
</g>
</svg>
