<?xml version="1.0" encoding="utf-8"?>
<!-- Generator: Adobe Illustrator 19.2.1, SVG Export Plug-In . SVG Version: 6.00 Build 0)  -->
<svg version="1.1" id="Layer_1" xmlns="http://www.w3.org/2000/svg" xmlns:xlink="http://www.w3.org/1999/xlink" x="0px" y="0px"
	 viewBox="0 0 289.1 51" style="enable-background:new 0 0 289.1 51;" xml:space="preserve">
<style type="text/css">
	.st0{fill:#FFFFFF;}
</style>
<g>
	<g>
		<path class="st0" d="M9.4,42.1h15.1l-1.2,7.7h6.1l1.9-12.4h-3.2l4-26.6h-18l-2.4,12.5c-0.9,4.9-1.8,8.5-2.7,10.7
			c-0.9,2.2-2,3.3-3.3,3.3H4.1L2.2,49.8h6L9.4,42.1z M15.6,31.6c0.8-2.3,1.5-5.1,2.1-8.2l1.5-7.8h6.1l-3.3,21.8h-9.3
			C13.8,35.9,14.7,33.9,15.6,31.6z M50.9,37.4H39.5l1.4-9.1h9.6l0.7-4.7h-9.6l1.2-8h11.4l0.7-4.7H37.4l-4.7,31.3h17.5L50.9,37.4z
			 M53.2,37.4l-0.7,4.7h0.8c3.4,0,6.1-1.3,8.2-4c2.1-2.7,3.6-7.1,4.5-13.2l1.3-9.3h6.8l-4,26.5h6.1l4.7-31.3H62l-2,14.1
			c-0.7,4.8-1.5,8.1-2.3,9.8c-0.8,1.8-2,2.6-3.7,2.6H53.2z M85.7,42.1l2.8-6.8h7.8l0.8,6.8h6.3l-4.2-31.3H93L79.4,42.1H85.7z
			 M94.6,20.7l0.1,0l1.1,9.9h-5.3L94.6,20.7z M127.9,42.1l4.7-31.3h-6.1l-12.9,19.8l-0.1,0l3-19.7h-6l-4.7,31.3h6l12.9-19.7l0.1,0
			l-2.9,19.7H127.9z M121.8,7.7c2.1,0,3.8-0.6,5.2-1.7c1.4-1.1,2.2-2.6,2.4-4.5l0-0.1H125c-0.1,0.8-0.4,1.4-0.8,1.9
			c-0.5,0.5-1,0.8-1.8,0.8c-0.8,0-1.4-0.2-1.7-0.7c-0.3-0.5-0.4-1.1-0.3-1.9H116l-0.1,0.1c-0.3,1.8,0.1,3.3,1.2,4.4
			C118.2,7.2,119.8,7.7,121.8,7.7z M152.7,42.6c3.3,0,6-0.8,8-2.4c2-1.6,3.2-4.1,3.7-7.6l0-0.1h-5.8c-0.3,2-0.9,3.4-1.7,4.2
			c-0.8,0.8-1.9,1.2-3.4,1.2c-1.7,0-2.8-0.5-3.5-1.6c-0.7-1.1-0.8-2.8-0.4-5.1l1.4-9.3c0.3-2.2,1-3.9,1.9-5c1-1.1,2.2-1.7,3.6-1.7
			c1.7,0,2.8,0.4,3.4,1.1c0.6,0.8,0.7,2.2,0.4,4.3h5.9l0-0.1c0.6-3.3,0-5.8-1.6-7.5c-1.6-1.7-4.1-2.5-7.4-2.5c-3.3,0-6,1-8.2,2.9
			c-2.2,1.9-3.6,4.8-4.1,8.6l-1.4,9.3c-0.5,3.6,0.1,6.4,1.8,8.4C146.9,41.6,149.4,42.6,152.7,42.6z M171.5,42.1h6.1l4-26.5h7.3
			l0.7-4.7H169l-0.7,4.7h7.2L171.5,42.1z M197.7,10.9l-13.6,31.3h6.3l2.8-6.8h7.8l0.8,6.8h6.3L204,10.9H197.7z M195.2,30.6l4.1-9.9
			l0.1,0l1.1,9.9H195.2z M228.9,39.9c1.9-1.5,3.1-3.8,3.6-6.9c0.2-1.7,0-3.2-0.6-4.6c-0.7-1.3-1.8-2.2-3.5-2.6
			c1.4-0.5,2.5-1.4,3.3-2.5c0.8-1.1,1.4-2.5,1.6-4c0.4-2.8-0.2-4.9-1.9-6.4c-1.7-1.4-4.1-2.2-7.2-2.2h-9l-4.7,31.3h10.5
			C224.4,42.1,227,41.4,228.9,39.9z M220.7,15.6h2.9c1.4,0,2.5,0.3,3.1,1c0.6,0.7,0.8,1.8,0.6,3.3c-0.2,1.3-0.7,2.4-1.6,3.1
			c-0.8,0.7-1.9,1.1-3.2,1.1h-3L220.7,15.6z M218.8,28.3h4.4c1.4,0,2.3,0.4,2.9,1.2c0.5,0.8,0.7,2,0.4,3.6c-0.2,1.4-0.7,2.5-1.5,3.3
			c-0.8,0.7-1.9,1.1-3.1,1.1h-4.4L218.8,28.3z M244.8,29.1l4.5,13h7l-6.2-15.8l10.5-15.5h-7.9l-7.1,12.8H244l1.9-12.8h-6.1
			l-4.7,31.3h6.1l1.9-13H244.8z M266.5,37.1c-0.6,0.5-1.4,0.8-2.3,0.8c-0.4,0-0.8,0-1.2-0.1c-0.4-0.1-0.8-0.2-1.3-0.4l-1.3,4.4
			c0.8,0.3,1.4,0.5,1.9,0.7s1.2,0.2,1.9,0.2c2,0,3.6-0.6,4.9-1.7c1.3-1.1,2.5-2.7,3.6-4.8l13.4-25.3h-6.4L272.2,26l-0.1,0l-0.1-0.8
			l-3.1-14.3h-6.5l6.1,22.7l-0.5,1.1C267.6,35.7,267,36.5,266.5,37.1z M273.4,48.7h4.1l4.1-6.6l0.8-5.2h-5.9l-0.8,5L273.4,48.7z
			 M-11.4,65c-1.7-1.4-4.1-2.2-7.2-2.2h-9l-4.7,31.3h10.5c3.3,0,5.9-0.7,7.8-2.2c1.9-1.5,3.1-3.8,3.6-6.9c0.2-1.7,0-3.2-0.6-4.6
			c-0.7-1.3-1.8-2.2-3.5-2.6c1.4-0.5,2.5-1.4,3.3-2.5c0.8-1.1,1.4-2.5,1.6-4C-9.1,68.6-9.8,66.5-11.4,65z M-16.4,85
			c-0.2,1.4-0.7,2.5-1.5,3.3c-0.8,0.7-1.9,1.1-3.1,1.1h-4.4l1.4-9.1h4.4c1.4,0,2.3,0.4,2.9,1.2C-16.4,82.2-16.2,83.4-16.4,85z
			 M-15.7,71.9c-0.2,1.3-0.7,2.4-1.6,3.1c-0.8,0.7-1.9,1.1-3.2,1.1h-3l1.3-8.5h2.9c1.4,0,2.5,0.3,3.1,1
			C-15.7,69.3-15.5,70.4-15.7,71.9z M5.4,73.9H1.3l1.7-11h-6.1l-4.7,31.3H2.4c3.2,0,5.8-0.9,8-2.8c2.1-1.8,3.5-4.3,3.9-7.4
			c0.4-2.9-0.2-5.3-1.9-7.2C10.8,74.9,8.5,73.9,5.4,73.9z M8.3,84c-0.2,1.5-0.8,2.8-1.8,3.9c-1,1.1-2.1,1.6-3.4,1.6H-1l1.6-10.8h4.1
			c1.4,0,2.4,0.5,3,1.5C8.3,81.2,8.5,82.4,8.3,84z M23,62.9l-4.7,31.3h6L29,62.9H23z M46.2,62.9L33.3,82.6l-0.1,0l3-19.7h-6
			l-4.7,31.3h6l12.9-19.7l0.1,0l-2.9,19.7h6.1l4.7-31.3H46.2z M74.8,62.9H57l-4.7,31.3h6.1l4-26.5h11.8L74.8,62.9z M88.8,62.9H78.4
			l-4.7,31.3h6.1l1.7-11.3h4.4c3.2,0,5.8-0.9,7.9-2.7c2.1-1.8,3.3-4.2,3.8-7.3c0.4-2.9-0.2-5.3-1.8-7.2
			C94.2,63.8,91.8,62.9,88.8,62.9z M91.5,72.9c-0.2,1.5-0.8,2.7-1.7,3.7c-0.9,1-2,1.5-3.3,1.5h-4.4l1.6-10.5h4.4
			c1.4,0,2.3,0.5,2.9,1.5S91.7,71.3,91.5,72.9z M129,62.9l-4.7,31.3h6l4.7-31.3H129z M111.4,73.9h-4.1l1.7-11h-6.1l-4.7,31.3h10.2
			c3.2,0,5.8-0.9,8-2.8c2.1-1.8,3.5-4.3,3.9-7.4c0.4-2.9-0.2-5.3-1.9-7.2C116.8,74.9,114.4,73.9,111.4,73.9z M114.2,84
			c-0.2,1.5-0.8,2.8-1.8,3.9c-1,1.1-2.1,1.6-3.4,1.6H105l1.6-10.8h4.1c1.4,0,2.4,0.5,3,1.5C114.3,81.2,114.4,82.4,114.2,84z
			 M149.4,77.9c1.4-0.5,2.5-1.4,3.3-2.5c0.8-1.1,1.4-2.5,1.6-4c0.4-2.8-0.2-4.9-1.9-6.4c-1.7-1.4-4.1-2.2-7.2-2.2h-9l-4.7,31.3h10.5
			c3.3,0,5.9-0.7,7.8-2.2c1.9-1.5,3.1-3.8,3.6-6.9c0.2-1.7,0-3.2-0.6-4.6C152.2,79.2,151.1,78.3,149.4,77.9z M147.5,85
			c-0.2,1.4-0.7,2.5-1.5,3.3c-0.8,0.7-1.9,1.1-3.1,1.1h-4.4l1.4-9.1h4.4c1.4,0,2.3,0.4,2.9,1.2C147.6,82.2,147.7,83.4,147.5,85z
			 M148.2,71.9c-0.2,1.3-0.7,2.4-1.6,3.1c-0.8,0.7-1.9,1.1-3.2,1.1h-3l1.3-8.5h2.9c1.4,0,2.5,0.3,3.1,1
			C148.2,69.3,148.4,70.4,148.2,71.9z M167.7,62.9l-13.6,31.3h6.3l2.8-6.8h7.8l0.8,6.8h6.3L174,62.9H167.7z M165.2,82.6l4.1-9.9
			l0.1,0l1.1,9.9H165.2z M190.7,53.4l-0.1,0.1c-0.3,1.8,0.1,3.3,1.2,4.4c1.1,1.2,2.7,1.7,4.7,1.7c2.1,0,3.8-0.6,5.2-1.7
			c1.4-1.1,2.2-2.6,2.4-4.5l0-0.1h-4.4c-0.1,0.8-0.4,1.4-0.8,1.9c-0.5,0.5-1,0.8-1.8,0.8c-0.8,0-1.4-0.2-1.7-0.7
			c-0.3-0.5-0.4-1.1-0.3-1.9H190.7z M188.3,82.6l-0.1,0l3-19.7h-6l-4.7,31.3h6l12.9-19.7l0.1,0l-2.9,19.7h6.1l4.7-31.3h-6.1
			L188.3,82.6z M228.6,62.9L215,94.1h6.3l2.8-6.8h7.8l0.8,6.8h6.3l-4.2-31.3H228.6z M226.1,82.6l4.1-9.9l0.1,0l1.1,9.9H226.1z
			 M262.4,65c-1.7-1.4-4.1-2.2-7.2-2.2h-9l-4.7,31.3h10.5c3.3,0,5.9-0.7,7.8-2.2c1.9-1.5,3.1-3.8,3.6-6.9c0.2-1.7,0-3.2-0.6-4.6
			c-0.7-1.3-1.8-2.2-3.5-2.6c1.4-0.5,2.5-1.4,3.3-2.5c0.8-1.1,1.4-2.5,1.6-4C264.7,68.6,264.1,66.5,262.4,65z M257.4,85
			c-0.2,1.4-0.7,2.5-1.5,3.3c-0.8,0.7-1.9,1.1-3.1,1.1h-4.4l1.4-9.1h4.4c1.4,0,2.3,0.4,2.9,1.2C257.5,82.2,257.7,83.4,257.4,85z
			 M258.2,71.9c-0.2,1.3-0.7,2.4-1.6,3.1c-0.8,0.7-1.9,1.1-3.2,1.1h-3l1.3-8.5h2.9c1.4,0,2.5,0.3,3.1,1
			C258.2,69.3,258.4,70.4,258.2,71.9z M289,62.9h-20.6l-0.7,4.7h7.2l-4,26.5h6.1l4-26.5h7.3L289,62.9z M302.2,62.4
			c-3.5,0-6.4,1-8.8,3c-2.3,2-3.8,4.9-4.4,8.7l-1.3,8.7c-0.6,3.6,0.1,6.5,1.9,8.6c1.8,2.1,4.4,3.1,7.7,3.1c3.5,0,6.4-1,8.8-3
			c2.3-2,3.8-4.9,4.4-8.7l1.3-8.7c0.5-3.6-0.1-6.5-1.9-8.6C308.1,63.5,305.6,62.4,302.2,62.4z M305.9,74.1l-1.3,8.8
			c-0.4,2.3-1.1,4-2.2,5.2c-1.1,1.2-2.5,1.8-4.2,1.8c-1.8,0-3-0.6-3.8-1.7c-0.7-1.1-0.9-2.9-0.5-5.3l1.3-8.8c0.3-2.3,1-4,2.1-5.1
			c1.1-1.2,2.5-1.8,4.2-1.8c1.8,0,3,0.6,3.8,1.7C306,70,306.2,71.7,305.9,74.1z M317.9,62.9l-3.1,20.5h6.1l3.1-20.5H317.9z
			 M313.2,94.1h6l0.8-5.4h-6L313.2,94.1z"/>
	</g>
</g>
</svg>
