<?xml version="1.0" encoding="utf-8"?>
<!-- Generator: Adobe Illustrator 19.2.1, SVG Export Plug-In . SVG Version: 6.00 Build 0)  -->
<svg version="1.1" id="Layer_1" xmlns="http://www.w3.org/2000/svg" xmlns:xlink="http://www.w3.org/1999/xlink" x="0px" y="0px"
	 viewBox="0 0 360 45.4" style="enable-background:new 0 0 360 45.4;" xml:space="preserve">
<style type="text/css">
	.st0{fill:#FFFFFF;}
</style>
<g>
	<g>
		<path class="st0" d="M43.5-10.7h15.1l-1.2,7.7h6.1l1.9-12.4h-3.2l4-26.6h-18l-2.4,12.5c-0.9,4.9-1.8,8.5-2.7,10.7
			c-0.9,2.2-2,3.3-3.3,3.3h-1.6L36.4-3.1h6L43.5-10.7z M49.7-21.3c0.8-2.3,1.5-5.1,2.1-8.2l1.5-7.8h6.1l-3.3,21.8h-9.3
			C47.9-17,48.9-18.9,49.7-21.3z M85-15.4H73.6l1.4-9.1h9.6l0.7-4.7h-9.6l1.2-8h11.4L89-42H71.5l-4.7,31.3h17.5L85-15.4z M87.4-15.4
			l-0.7,4.7h0.8c3.4,0,6.1-1.3,8.2-4c2.1-2.7,3.6-7.1,4.5-13.2l1.3-9.3h6.8l-4,26.5h6.1L115-42h-19l-2,14.1
			c-0.7,4.8-1.5,8.1-2.3,9.8c-0.8,1.8-2,2.6-3.7,2.6H87.4z M119.9-10.7l2.8-6.8h7.8l0.8,6.8h6.3L133.4-42h-6.3l-13.6,31.3H119.9z
			 M128.7-32.2l0.1,0l1.1,9.9h-5.3L128.7-32.2z M156-45.1c2.1,0,3.8-0.6,5.2-1.7c1.4-1.1,2.2-2.6,2.4-4.5l0-0.1h-4.4
			c-0.1,0.8-0.4,1.4-0.8,1.9c-0.5,0.5-1,0.8-1.8,0.8c-0.8,0-1.4-0.2-1.7-0.7c-0.3-0.5-0.4-1.1-0.3-1.9h-4.4l-0.1,0.1
			c-0.3,1.8,0.1,3.3,1.2,4.4C152.3-45.7,153.9-45.1,156-45.1z M162-10.7l4.7-31.3h-6.1l-12.9,19.8l-0.1,0l3-19.7h-6l-4.7,31.3h6
			l12.9-19.7l0.1,0l-2.9,19.7H162z M186.8-10.3c3.3,0,6-0.8,8-2.4c2-1.6,3.2-4.1,3.7-7.6l0-0.1h-5.8c-0.3,2-0.9,3.4-1.7,4.2
			c-0.8,0.8-1.9,1.2-3.4,1.2c-1.7,0-2.8-0.5-3.5-1.6c-0.7-1.1-0.8-2.8-0.4-5.1L185-31c0.3-2.2,1-3.9,1.9-5c1-1.1,2.2-1.7,3.6-1.7
			c1.7,0,2.8,0.4,3.4,1.1c0.6,0.8,0.7,2.2,0.4,4.3h5.9l0-0.1c0.6-3.3,0-5.8-1.6-7.5c-1.6-1.7-4.1-2.5-7.4-2.5c-3.3,0-6,1-8.2,2.9
			c-2.2,1.9-3.6,4.8-4.1,8.6l-1.4,9.3c-0.5,3.6,0.1,6.4,1.8,8.4C181.1-11.3,183.6-10.3,186.8-10.3z M205.6-10.7h6.1l4-26.5h7.3
			l0.7-4.7h-20.6l-0.7,4.7h7.2L205.6-10.7z M231.8-42l-13.6,31.3h6.3l2.8-6.8h7.8l0.8,6.8h6.3L238.1-42H231.8z M229.3-22.3l4.1-9.9
			l0.1,0l1.1,9.9H229.3z M263.1-12.9c1.9-1.5,3.1-3.8,3.6-6.9c0.2-1.7,0-3.2-0.6-4.6c-0.7-1.3-1.8-2.2-3.5-2.6
			c1.4-0.5,2.5-1.4,3.3-2.5c0.8-1.1,1.4-2.5,1.6-4c0.4-2.8-0.2-4.9-1.9-6.4c-1.7-1.4-4.1-2.2-7.2-2.2h-9l-4.7,31.3h10.5
			C258.5-10.7,261.1-11.5,263.1-12.9z M254.8-37.3h2.9c1.4,0,2.5,0.3,3.1,1c0.6,0.7,0.8,1.8,0.6,3.3c-0.2,1.3-0.7,2.4-1.6,3.1
			c-0.8,0.7-1.9,1.1-3.2,1.1h-3L254.8-37.3z M252.9-24.6h4.4c1.4,0,2.3,0.4,2.9,1.2c0.5,0.8,0.7,2,0.4,3.6c-0.2,1.4-0.7,2.5-1.5,3.3
			c-0.8,0.7-1.9,1.1-3.1,1.1h-4.4L252.9-24.6z M278.9-23.7l4.5,13h7l-6.2-15.8L294.8-42h-7.9l-7.1,12.8h-1.7L280-42H274l-4.7,31.3
			h6.1l1.9-13H278.9z M300.6-15.8c-0.6,0.5-1.4,0.8-2.3,0.8c-0.4,0-0.8,0-1.2-0.1c-0.4-0.1-0.8-0.2-1.3-0.4l-1.3,4.4
			c0.8,0.3,1.4,0.5,1.9,0.7c0.5,0.2,1.2,0.2,1.9,0.2c2,0,3.6-0.6,4.9-1.7c1.3-1.1,2.5-2.7,3.6-4.8L320.2-42h-6.4l-7.5,15.1l-0.1,0
			l-0.1-0.8L303.1-42h-6.5l6.1,22.7l-0.5,1.1C301.7-17.1,301.2-16.3,300.6-15.8z M307.5-4.2h4.1l4.1-6.6l0.8-5.2h-5.9l-0.8,5
			L307.5-4.2z M22.7,14.2C21,12.7,18.6,12,15.5,12h-9L1.8,43.3h10.5c3.3,0,5.9-0.7,7.8-2.2c1.9-1.5,3.1-3.8,3.6-6.9
			c0.2-1.7,0-3.2-0.6-4.6c-0.7-1.3-1.8-2.2-3.5-2.6c1.4-0.5,2.5-1.4,3.3-2.5c0.8-1.1,1.4-2.5,1.6-4C25,17.7,24.4,15.6,22.7,14.2z
			 M17.7,34.2c-0.2,1.4-0.7,2.5-1.5,3.3c-0.8,0.7-1.9,1.1-3.1,1.1H8.6l1.4-9.1h4.4c1.4,0,2.3,0.4,2.9,1.2
			C17.8,31.4,17.9,32.6,17.7,34.2z M18.4,21.1c-0.2,1.3-0.7,2.4-1.6,3.1c-0.8,0.7-1.9,1.1-3.2,1.1h-3l1.3-8.5h2.9
			c1.4,0,2.5,0.3,3.1,1C18.5,18.4,18.7,19.5,18.4,21.1z M39.6,23h-4.1l1.7-11H31l-4.7,31.3h10.2c3.2,0,5.8-0.9,8-2.8
			c2.1-1.8,3.5-4.3,3.9-7.4c0.4-2.9-0.2-5.3-1.9-7.2C44.9,24,42.6,23,39.6,23z M42.4,33.1c-0.2,1.5-0.8,2.8-1.8,3.9
			c-1,1.1-2.1,1.6-3.4,1.6h-4.1l1.6-10.8h4.1c1.4,0,2.4,0.5,3,1.5C42.4,30.3,42.6,31.6,42.4,33.1z M57.1,12l-4.7,31.3h6L63.2,12
			H57.1z M80.3,12L67.4,31.8l-0.1,0l3-19.7h-6l-4.7,31.3h6l12.9-19.7l0.1,0l-2.9,19.7h6.1L86.4,12H80.3z M108.9,12H91.1l-4.7,31.3
			h6.1l4-26.5h11.8L108.9,12z M122.9,12h-10.5l-4.7,31.3h6.1l1.7-11.3h4.4c3.2,0,5.8-0.9,7.9-2.7c2.1-1.8,3.3-4.2,3.8-7.3
			c0.4-2.9-0.2-5.3-1.8-7.2C128.3,12.9,126,12,122.9,12z M125.6,22c-0.2,1.5-0.8,2.7-1.7,3.7c-0.9,1-2,1.5-3.3,1.5h-4.4l1.6-10.5
			h4.4c1.4,0,2.3,0.5,2.9,1.5S125.9,20.4,125.6,22z M163.1,12l-4.7,31.3h6l4.7-31.3H163.1z M145.5,23h-4.1l1.7-11H137l-4.7,31.3
			h10.2c3.2,0,5.8-0.9,8-2.8c2.1-1.8,3.5-4.3,3.9-7.4c0.4-2.9-0.2-5.3-1.9-7.2C150.9,24,148.5,23,145.5,23z M148.4,33.1
			c-0.2,1.5-0.8,2.8-1.8,3.9c-1,1.1-2.1,1.6-3.4,1.6h-4.1l1.6-10.8h4.1c1.4,0,2.4,0.5,3,1.5C148.4,30.3,148.6,31.6,148.4,33.1z
			 M183.6,27.1c1.4-0.5,2.5-1.4,3.3-2.5c0.8-1.1,1.4-2.5,1.6-4c0.4-2.8-0.2-4.9-1.9-6.4c-1.7-1.4-4.1-2.2-7.2-2.2h-9l-4.7,31.3h10.5
			c3.3,0,5.9-0.7,7.8-2.2c1.9-1.5,3.1-3.8,3.6-6.9c0.2-1.7,0-3.2-0.6-4.6C186.3,28.3,185.2,27.4,183.6,27.1z M181.6,34.2
			c-0.2,1.4-0.7,2.5-1.5,3.3c-0.8,0.7-1.9,1.1-3.1,1.1h-4.4l1.4-9.1h4.4c1.4,0,2.3,0.4,2.9,1.2C181.7,31.4,181.8,32.6,181.6,34.2z
			 M182.3,21.1c-0.2,1.3-0.7,2.4-1.6,3.1c-0.8,0.7-1.9,1.1-3.2,1.1h-3l1.3-8.5h2.9c1.4,0,2.5,0.3,3.1,1
			C182.4,18.4,182.6,19.5,182.3,21.1z M201.8,12l-13.6,31.3h6.3l2.8-6.8h7.8l0.8,6.8h6.3L208.1,12H201.8z M199.3,31.7l4.1-9.9l0.1,0
			l1.1,9.9H199.3z M224.8,2.6l-0.1,0.1c-0.3,1.8,0.1,3.3,1.2,4.4c1.1,1.2,2.7,1.7,4.7,1.7c2.1,0,3.8-0.6,5.2-1.7
			c1.4-1.1,2.2-2.6,2.4-4.5l0-0.1h-4.4c-0.1,0.8-0.4,1.4-0.8,1.9c-0.5,0.5-1,0.8-1.8,0.8c-0.8,0-1.4-0.2-1.7-0.7
			c-0.3-0.5-0.4-1.1-0.3-1.9H224.8z M222.4,31.8l-0.1,0l3-19.7h-6l-4.7,31.3h6l12.9-19.7l0.1,0l-2.9,19.7h6.1l4.7-31.3h-6.1
			L222.4,31.8z M262.7,12l-13.6,31.3h6.3l2.8-6.8h7.8l0.8,6.8h6.3L269,12H262.7z M260.2,31.7l4.1-9.9l0.1,0l1.1,9.9H260.2z
			 M296.6,14.2c-1.7-1.4-4.1-2.2-7.2-2.2h-9l-4.7,31.3h10.5c3.3,0,5.9-0.7,7.8-2.2c1.9-1.5,3.1-3.8,3.6-6.9c0.2-1.7,0-3.2-0.6-4.6
			c-0.7-1.3-1.8-2.2-3.5-2.6c1.4-0.5,2.5-1.4,3.3-2.5c0.8-1.1,1.4-2.5,1.6-4C298.8,17.7,298.2,15.6,296.6,14.2z M291.6,34.2
			c-0.2,1.4-0.7,2.5-1.5,3.3c-0.8,0.7-1.9,1.1-3.1,1.1h-4.4l1.4-9.1h4.4c1.4,0,2.3,0.4,2.9,1.2C291.6,31.4,291.8,32.6,291.6,34.2z
			 M292.3,21.1c-0.2,1.3-0.7,2.4-1.6,3.1c-0.8,0.7-1.9,1.1-3.2,1.1h-3l1.3-8.5h2.9c1.4,0,2.5,0.3,3.1,1
			C292.3,18.4,292.5,19.5,292.3,21.1z M323.2,12h-20.6l-0.7,4.7h7.2l-4,26.5h6.1l4-26.5h7.3L323.2,12z M336.4,11.5
			c-3.5,0-6.4,1-8.8,3c-2.3,2-3.8,4.9-4.4,8.7L322,32c-0.6,3.6,0.1,6.5,1.9,8.6c1.8,2.1,4.4,3.1,7.7,3.1c3.5,0,6.4-1,8.8-3
			c2.3-2,3.8-4.9,4.4-8.7l1.3-8.7c0.5-3.6-0.1-6.5-1.9-8.6C342.3,12.6,339.7,11.5,336.4,11.5z M340,23.2l-1.3,8.8
			c-0.4,2.3-1.1,4-2.2,5.2c-1.1,1.2-2.5,1.8-4.2,1.8c-1.8,0-3-0.6-3.8-1.7c-0.7-1.1-0.9-2.9-0.5-5.3l1.3-8.8c0.3-2.3,1-4,2.1-5.1
			c1.1-1.2,2.5-1.8,4.2-1.8c1.8,0,3,0.6,3.8,1.7C340.1,19.1,340.3,20.9,340,23.2z M352,12l-3.1,20.5h6.1l3.1-20.5H352z M347.3,43.3
			h6l0.8-5.4h-6L347.3,43.3z"/>
	</g>
</g>
</svg>
