<!-- Generator: Adobe Illustrator 21.0.0, SVG Export Plug-In  -->
<svg version="1.1"
	 xmlns="http://www.w3.org/2000/svg" xmlns:xlink="http://www.w3.org/1999/xlink" xmlns:a="http://ns.adobe.com/AdobeSVGViewerExtensions/3.0/"
	 x="0px" y="0px" width="425.2px" height="93px" viewBox="0 0 425.2 93" style="enable-background:new 0 0 425.2 93;"
	 xml:space="preserve">
<style type="text/css">
	.st0{fill:#14A0FF;}
	.st1{fill:#FFFFFF;}
</style>
<defs>
</defs>
<path class="st0" d="M246,27.9C249.8,12.6,240.5,0,217.8,0l-49.2,0.1l-18.4,74.6L160.9,93h35c22.9,0,40.7-10.7,45.3-29.3
	c2.3-9.5-0.4-16.2-6.4-19.5V44C240.8,40.2,244.4,34.3,246,27.9z M215.9,63.1C215,67,212.3,71,201.4,71h-22.3l3.9-16h22.2
	C216.1,55,216.9,59.1,215.9,63.1z M220.5,28.4c-0.8,3-3.1,6.6-12.5,6.6h-20l3.3-13h20C220.8,22,221.3,25.1,220.5,28.4z"/>
<g>
	<polygon class="st0" points="277,57 321.8,57 326.9,35 282.4,35 285.8,22 329.9,22 335,0 262.7,0 239.7,93 321.7,93 327,71 
		273.7,71 	"/>
	<polygon class="st0" points="341.3,0 336.1,22 362.9,22 345.3,93 373.4,93 391,22 419.7,22 425.2,0 	"/>
</g>
<g>
	<path class="st1" d="M29.4,93H1.1l12.3-49.5l2.8-7.5l-7.5,7.3l-8.3,8.5L0,27L29.4,0h22.9L29.4,93z"/>
</g>
<g>
	<path class="st1" d="M131.7,54.5l-9-15.3L166.5,0l-40.8,0l-16.8,16l-0.1-0.1L52.5,67.8L25.3,93L64,93l29-25.9l9.8,16.6
		c3.2,4.2,8,9.3,28,9.3h23.4L131.7,54.5L131.7,54.5z"/>
	<path class="st1" d="M105.9,10.9l-0.1-0.2C99.1,1.1,89,0,83.7,0c-1.6-0.1-2.6,0-2.6,0H53.6l22.5,38.3L105.9,10.9z"/>
</g>
</svg>
