<?xml version="1.0" encoding="utf-8"?>
<!-- Generator: Adobe Illustrator 21.0.0, SVG Export Plug-In . SVG Version: 6.00 Build 0)  -->
<svg version="1.1" id="Слой_1" xmlns="http://www.w3.org/2000/svg" xmlns:xlink="http://www.w3.org/1999/xlink" x="0px" y="0px"
	 viewBox="0 0 248.3 54" style="enable-background:new 0 0 248.3 54;" xml:space="preserve">
<style type="text/css">
	.st0{fill:#003870;}
	.st1{fill:#FFFFFF;}
</style>
<rect class="st0" width="248.3" height="54"/>
<g>
	<path class="st1" d="M64.8,14.1H47.9v7.4h6.5c4.3,0,7.7,1.1,10.2,3.4c2.5,2.3,3.8,5.1,3.8,8.7s-1.2,6.6-3.8,8.8
		c-2.6,2.3-5.9,3.4-10.2,3.4h-14V8.3h24.4V14.1z M47.9,27.2v12.7h6.5c2.2,0,3.7-0.6,4.9-1.8c1.1-1.2,1.7-2.8,1.7-4.6
		c0-1.7-0.6-3.3-1.7-4.4c-1.1-1.2-2.8-1.8-4.9-1.8C54.4,27.2,47.9,27.2,47.9,27.2z"/>
	<path class="st1" d="M103.7,30.4c0,4.6-1.4,8.4-4.3,11.4s-6.7,4.5-11.3,4.5s-8.4-1.5-11.3-4.5s-4.3-6.8-4.3-11.4v-6.8
		c0-4.6,1.4-8.4,4.3-11.4c2.9-3,6.6-4.5,11.2-4.5c4.6,0,8.4,1.5,11.4,4.5s4.4,6.8,4.4,11.4L103.7,30.4L103.7,30.4z M96.2,23.6
		c0-2.9-0.7-5.3-2.2-7.2c-1.4-1.9-3.5-2.9-6-2.9c-2.6,0-4.5,0.9-5.9,2.8c-1.4,1.8-2.2,4.3-2.2,7.2v6.8c0,3,0.7,5.4,2.2,7.3
		c1.4,1.8,3.4,2.8,5.9,2.8c2.6,0,4.6-0.9,6-2.8c1.4-1.8,2.2-4.3,2.2-7.3V23.6z"/>
	<path class="st1" d="M140,45.7h-7.5V30.2h-15.3v15.6h-7.5V8.3h7.5v16.1h15.3V8.3h7.5V45.7z"/>
	<path class="st1" d="M159.7,25l0.7,2.3h0.2l7.8-18.9h8l-13.6,30.3c-1.1,2.5-2.4,4.3-3.9,5.6s-3.7,2-6.5,2c-1,0-1.9-0.1-2.8-0.3
		c-0.8-0.2-1.7-0.4-2.8-0.8l0.9-5.3c0.8,0.2,1.4,0.4,2,0.5c0.6,0.1,1.2,0.2,1.7,0.2c1.4,0,2.5-0.3,3.3-0.9c0.7-0.6,1.3-1.5,1.7-2.7
		l0.6-1.4L144.1,8.3h8.1L159.7,25z"/>
	<path class="st1" d="M208,33.3v0.2c0.1,4-1.1,7.2-3.7,9.4c-2.5,2.3-5.9,3.4-10.3,3.4c-4.5,0-8.1-1.4-10.9-4.3
		c-2.8-2.9-4.1-6.7-4.1-11.2v-7.5c0-4.6,1.3-8.3,4-11.2s6.2-4.4,10.5-4.4c4.6,0,8.1,1.1,10.6,3.4c2.6,2.3,3.8,5.3,3.8,9.4v0.2h-7.3
		c0-2.4-0.6-4.2-1.7-5.3s-3-1.7-5.3-1.7s-4,0.9-5.2,2.7s-1.8,4.1-1.8,7v7.5c0,2.9,0.6,5.2,1.9,7.1c1.3,1.8,3.2,2.8,5.5,2.8
		s3.9-0.6,5-1.7c1.1-1.1,1.6-3,1.6-5.4h7.3L208,33.3L208,33.3z"/>
</g>
</svg>
