<?xml version="1.0" encoding="utf-8"?>
<!-- Generator: Adobe Illustrator 21.0.0, SVG Export Plug-In . SVG Version: 6.00 Build 0)  -->
<svg version="1.1" id="Слой_1" xmlns="http://www.w3.org/2000/svg" xmlns:xlink="http://www.w3.org/1999/xlink" x="0px" y="0px"
	 viewBox="0 0 292.5 48.5" style="enable-background:new 0 0 292.5 48.5;" xml:space="preserve">
<style type="text/css">
	.st0{fill:#FF9100;}
	.st1{fill:#FFFFFF;}
</style>
<rect class="st0" width="292.5" height="48.5"/>
<g>
	<path class="st1" d="M50.7,20.7c1.5,0,2.7-0.4,3.5-1.2c0.8-0.8,1.2-2,1.2-3.4c0-1.1-0.4-2.1-1.3-2.9c-0.8-0.8-2-1.2-3.4-1.2
		c-1.1,0-2,0.3-2.7,0.9c-0.7,0.6-1.1,1.4-1.1,2.4h-8.2v-0.1c-0.1-2.9,1-5.3,3.4-7.1s5.3-2.7,8.7-2.7c4,0,7.1,0.9,9.5,2.7
		s3.6,4.4,3.6,7.7c0,1.7-0.5,3.2-1.5,4.6s-2.4,2.5-4.1,3.3c2,0.7,3.5,1.8,4.6,3.3c1.1,1.4,1.6,3.2,1.6,5.3c0,3.3-1.3,6-3.9,7.9
		c-2.6,1.9-5.8,2.9-9.8,2.9c-3.4,0-6.4-0.9-9-2.7c-2.5-1.8-3.8-4.4-3.7-7.8v-0.2h8.3c0,1.2,0.4,2.2,1.2,3s1.9,1.2,3.1,1.2
		c1.5,0,2.8-0.4,3.8-1.3c1-0.8,1.5-1.9,1.5-3.2c0-1.8-0.5-3.1-1.4-3.9S52.4,27,50.7,27h-4v-6.3H50.7z"/>
	<path class="st1" d="M69,26.4l2.1-20.5h21.4v6.6H78l-0.9,7.6c0.7-0.5,1.6-0.9,2.6-1.2c1.1-0.3,2.2-0.5,3.5-0.5c3.4-0.1,6,1,7.8,3.1
		c1.8,2.2,2.7,5.2,2.7,9.2c0,3.5-1,6.5-3.1,8.8c-2,2.3-5.3,3.5-9.6,3.5c-3.5,0-6.5-0.9-9.1-2.7S68.1,36,68.2,33v-0.2l8.3-0.5
		c0,1.3,0.4,2.3,1.2,3c0.8,0.7,1.9,1.1,3.2,1.1c1.6,0,2.7-0.5,3.3-1.4c0.6-0.9,0.9-2.4,0.9-4.3c0-2-0.4-3.6-1.1-4.7
		c-0.7-1.2-1.9-1.7-3.4-1.7c-1.1,0-2,0.2-2.7,0.7s-1.2,1.1-1.4,1.8L69,26.4z"/>
	<path class="st1" d="M129.3,29.1c0,4.4-1.2,7.8-3.5,10.3s-5.4,3.7-9.2,3.7c-3.8,0-6.9-1.2-9.3-3.7c-2.3-2.5-3.5-5.9-3.5-10.3v-9.7
		c0-4.4,1.2-7.8,3.5-10.3s5.4-3.7,9.3-3.7c3.8,0,6.9,1.2,9.2,3.7c2.3,2.5,3.5,5.9,3.5,10.2V29.1z M120.9,18.8c0-2.2-0.4-3.9-1.1-5.1
		c-0.8-1.2-1.8-1.8-3.2-1.8s-2.4,0.6-3.1,1.8s-1.1,2.9-1.1,5.1v10.8c0,2.3,0.4,4,1.1,5.2s1.8,1.7,3.2,1.7c1.3,0,2.4-0.6,3.1-1.7
		s1.1-2.9,1.1-5.2C120.9,29.6,120.9,18.8,120.9,18.8z"/>
	<path class="st1" d="M159.1,29.1c0,4.4-1.2,7.8-3.5,10.3s-5.4,3.7-9.2,3.7s-6.9-1.2-9.3-3.7c-2.3-2.5-3.5-5.9-3.5-10.3v-9.7
		c0-4.4,1.2-7.8,3.5-10.3s5.4-3.7,9.2-3.7s6.9,1.2,9.2,3.7S159,15,159,19.3v9.8C159,29.1,159.1,29.1,159.1,29.1z M150.7,18.8
		c0-2.2-0.4-3.9-1.1-5.1c-0.8-1.2-1.8-1.8-3.2-1.8s-2.4,0.6-3.1,1.8s-1.1,2.9-1.1,5.1v10.8c0,2.3,0.4,4,1.1,5.2s1.8,1.7,3.2,1.7
		c1.3,0,2.4-0.6,3.1-1.7s1.1-2.9,1.1-5.2V18.8z"/>
	<path class="st1" d="M188.9,29.1c0,4.4-1.2,7.8-3.5,10.3s-5.4,3.7-9.2,3.7s-6.9-1.2-9.3-3.7c-2.3-2.5-3.5-5.9-3.5-10.3v-9.7
		c0-4.4,1.2-7.8,3.5-10.3s5.4-3.7,9.2-3.7s6.9,1.2,9.2,3.7s3.5,5.9,3.5,10.2v9.8C188.8,29.1,188.9,29.1,188.9,29.1z M180.4,18.8
		c0-2.2-0.4-3.9-1.1-5.1c-0.8-1.2-1.8-1.8-3.2-1.8s-2.4,0.6-3.1,1.8c-0.7,1.2-1.1,2.9-1.1,5.1v10.8c0,2.3,0.4,4,1.1,5.2
		c0.7,1.2,1.8,1.7,3.2,1.7c1.3,0,2.4-0.6,3.1-1.7s1.1-2.9,1.1-5.2V18.8z"/>
	<path class="st1" d="M203.1,33.9h-1.4v8.6h-5V21.1h5v8.4h1l4.8-8.4h6.2l-6.7,9.7l7.3,11.7h-6.4L203.1,33.9z"/>
	<path class="st1" d="M221.1,38.7h8.8v3.8h-14.7v-2.2l8.6-15.3h-8.7v-3.8h14.6v2.1L221.1,38.7z"/>
	<path class="st1" d="M247.5,24.9h-5.7v17.6h-5V24.9h-5.6v-3.8h16.2v3.8H247.5z"/>
	<path class="st1" d="M254.4,34.9h-5V21.1h5V34.9z M254.4,42.5h-5v-4.2h5V42.5z"/>
</g>
</svg>
