<?xml version="1.0" encoding="utf-8"?>
<!-- Generator: Adobe Illustrator 21.0.0, SVG Export Plug-In . SVG Version: 6.00 Build 0)  -->
<svg version="1.1" id="Слой_1" xmlns="http://www.w3.org/2000/svg" xmlns:xlink="http://www.w3.org/1999/xlink" x="0px" y="0px"
	 viewBox="0 0 166.5 93" style="enable-background:new 0 0 166.5 93;" xml:space="preserve">
<style type="text/css">
	.st0{fill:#FFFFFF;}
</style>
<g>
	<g>
		<path class="st0" d="M29.4,93H1.1l12.3-49.5l2.8-7.5l-7.5,7.3l-8.3,8.5L0,27L29.4,0h22.9L29.4,93z"/>
	</g>
	<g>
		<path class="st0" d="M131.7,54.5l-9-15.3L166.5,0h-40.8l-16.8,16l-0.1-0.1L52.5,67.8L25.3,93H64l29-25.9l9.8,16.6
			c3.2,4.2,8,9.3,28,9.3h23.4L131.7,54.5L131.7,54.5z"/>
		<path class="st0" d="M105.9,10.9l-0.1-0.2C99.1,1.1,89,0,83.7,0c-1.6-0.1-2.6,0-2.6,0H53.6l22.5,38.3L105.9,10.9z"/>
	</g>
</g>
</svg>
