<?xml version="1.0" encoding="UTF-8" standalone="no"?>
<!-- Created with Inkscape (http://www.inkscape.org/) -->

<svg
   xmlns:dc="http://purl.org/dc/elements/1.1/"
   xmlns:cc="http://creativecommons.org/ns#"
   xmlns:rdf="http://www.w3.org/1999/02/22-rdf-syntax-ns#"
   xmlns:svg="http://www.w3.org/2000/svg"
   xmlns="http://www.w3.org/2000/svg"
   xmlns:sodipodi="http://sodipodi.sourceforge.net/DTD/sodipodi-0.dtd"
   xmlns:inkscape="http://www.inkscape.org/namespaces/inkscape"
   x="0px" y="0px"
	 viewBox="0 0 64 64" enable-background="new 0 0 64 64"
   version="1.1"
   id="svg8"
   inkscape:version="0.92.4 (5da689c313, 2019-01-14)"
   sodipodi:docname="play2.svg">
  <defs
     id="defs2">
	
	
</defs>
  <sodipodi:namedview
     id="base"
     pagecolor="#ffffff"
     bordercolor="#666666"
     borderopacity="1.0"
     inkscape:pageopacity="0.0"
     inkscape:pageshadow="2"
     inkscape:zoom="5.6"
     inkscape:cx="76.899093"
     inkscape:cy="879.77377"
     inkscape:document-units="mm"
     inkscape:current-layer="layer1"
     showgrid="false"
     inkscape:window-width="1920"
     inkscape:window-height="1001"
     inkscape:window-x="-9"
     inkscape:window-y="-9"
     inkscape:window-maximized="1" />
  <metadata
     id="metadata5">
    <rdf:RDF>
      <cc:Work
         rdf:about="">
        <dc:format>image/svg+xml</dc:format>
        <dc:type
           rdf:resource="http://purl.org/dc/dcmitype/StillImage" />
        <dc:title></dc:title>
      </cc:Work>
    </rdf:RDF>
  </metadata>
  <g
     inkscape:label="Layer 1"
     inkscape:groupmode="layer"
     id="layer1">
    <ellipse
       style="opacity:0.49800002;fill:#f2ffff;fill-opacity:1;stroke:none;stroke-width:0.08470051;stroke-miterlimit:4;stroke-dasharray:none;stroke-opacity:1"
       id="path4605"
       cx="25.655134"
       cy="63.33984"
       rx="8.166256"
       ry="8.0171041" />
    <path
       style="fill:#000000;fill-opacity:1;stroke-width:0.26458332"
       id="path10"
       d="M 29.410172,63.174044 23.9025,60.420208 c -0.08192,-0.04056 -0.179335,-0.0367 -0.257361,0.01161 -0.07803,0.04831 -0.125571,0.133324 -0.125571,0.225055 v 5.507672 c 0,0.09173 0.04755,0.176741 0.125571,0.225055 0.04239,0.02635 0.0907,0.03953 0.139012,0.03953 0.04056,0 0.08088,-0.0093 0.118349,-0.02789 l 5.507672,-2.753836 c 0.08964,-0.04498 0.146235,-0.136446 0.146235,-0.236696 0,-0.100251 -0.05659,-0.191718 -0.146235,-0.23667 z"
       inkscape:connector-curvature="0"
       sodipodi:nodetypes="cccsscsccscc" />
    <path
       style="fill:#000000;fill-opacity:1;stroke-width:0.26458332"
       id="path12"
       d="m 25.702381,54.944047 c -4.676008,0 -8.466667,3.790659 -8.466667,8.466667 0,4.676007 3.790659,8.466666 8.466667,8.466666 4.676007,0 8.466666,-3.790659 8.466666,-8.466666 0,-4.676008 -3.790659,-8.466667 -8.466666,-8.466667 z m 0,16.404166 c -4.376764,0 -7.9375,-3.560736 -7.9375,-7.937499 0,-4.376738 3.560736,-7.9375 7.9375,-7.9375 4.376737,0 7.937499,3.560762 7.937499,7.9375 0,4.376763 -3.560762,7.937499 -7.937499,7.937499 z"
       inkscape:connector-curvature="0"
       sodipodi:nodetypes="ssssssssss" />
    <g
       id="g15"
       transform="matrix(0.26458333,0,0,0.26458333,17.235714,54.944047)">
</g>
    <g
       id="g17"
       transform="matrix(0.26458333,0,0,0.26458333,17.235714,54.944047)">
</g>
    <g
       id="g19"
       transform="matrix(0.26458333,0,0,0.26458333,17.235714,54.944047)">
</g>
    <g
       id="g21"
       transform="matrix(0.26458333,0,0,0.26458333,17.235714,54.944047)">
</g>
    <g
       id="g23"
       transform="matrix(0.26458333,0,0,0.26458333,17.235714,54.944047)">
</g>
    <g
       id="g25"
       transform="matrix(0.26458333,0,0,0.26458333,17.235714,54.944047)">
</g>
    <g
       id="g27"
       transform="matrix(0.26458333,0,0,0.26458333,17.235714,54.944047)">
</g>
    <g
       id="g29"
       transform="matrix(0.26458333,0,0,0.26458333,17.235714,54.944047)">
</g>
    <g
       id="g31"
       transform="matrix(0.26458333,0,0,0.26458333,17.235714,54.944047)">
</g>
    <g
       id="g33"
       transform="matrix(0.26458333,0,0,0.26458333,17.235714,54.944047)">
</g>
    <g
       id="g35"
       transform="matrix(0.26458333,0,0,0.26458333,17.235714,54.944047)">
</g>
    <g
       id="g37"
       transform="matrix(0.26458333,0,0,0.26458333,17.235714,54.944047)">
</g>
    <g
       id="g39"
       transform="matrix(0.26458333,0,0,0.26458333,17.235714,54.944047)">
</g>
    <g
       id="g41"
       transform="matrix(0.26458333,0,0,0.26458333,17.235714,54.944047)">
</g>
    <g
       id="g43"
       transform="matrix(0.26458333,0,0,0.26458333,17.235714,54.944047)">
</g>
  </g>
</svg>
