<?xml version="1.0" encoding="utf-8"?>
<!-- Generator: Adobe Illustrator 21.0.0, SVG Export Plug-In . SVG Version: 6.00 Build 0)  -->
<svg version="1.1" id="Слой_1" xmlns="http://www.w3.org/2000/svg" xmlns:xlink="http://www.w3.org/1999/xlink" x="0px" y="0px"
	 viewBox="0 0 241.8 100.1" style="enable-background:new 0 0 241.8 100.1;" xml:space="preserve">
<style type="text/css">
	.st0{fill:#FFFEFE;}
</style>
<g>
	<path class="st0" d="M4.3,20v7.7H0V6.4h8.2c2.5,0,4.4,0.6,5.8,1.9s2.1,2.9,2.1,4.9s-0.7,3.7-2.1,4.9S10.6,20,8.2,20H4.3z M4.3,16.7
		h3.9c1.2,0,2.1-0.3,2.7-1c0.6-0.7,0.9-1.5,0.9-2.5c0-1-0.3-1.9-0.9-2.5c-0.6-0.7-1.5-1-2.7-1H4.3V16.7z"/>
	<path class="st0" d="M31.3,18.4h-7.9v6.1h9.4v3.3H19.1V6.4h13.7v3.3h-9.4v5.4h7.9V18.4z"/>
	<path class="st0" d="M49.7,9.7H40v18h-4.3V6.4h13.9V9.7z"/>
	<path class="st0" d="M65.3,6.4h4.3v21.3h-4.3V13.5l-0.1,0l-8.6,14.3h-4.3V6.4h4.3v14.2l0.1,0L65.3,6.4z"/>
	<path class="st0" d="M89.4,20.7L89.4,20.7c0.1,2.4-0.6,4.1-2.1,5.4s-3.4,1.9-5.9,1.9c-2.6,0-4.6-0.8-6.2-2.5
		c-1.6-1.6-2.4-3.8-2.4-6.4V15c0-2.6,0.8-4.7,2.3-6.4c1.5-1.7,3.5-2.5,6-2.5c2.6,0,4.6,0.6,6.1,1.9s2.2,3.1,2.1,5.4l0,0.1h-4.2
		c0-1.4-0.3-2.4-1-3.1c-0.7-0.7-1.7-1-3.1-1c-1.3,0-2.3,0.5-3,1.5c-0.7,1-1.1,2.4-1.1,4v4.3c0,1.6,0.4,3,1.1,4s1.8,1.6,3.2,1.6
		c1.3,0,2.2-0.3,2.9-1c0.6-0.7,0.9-1.7,0.9-3.1H89.4z"/>
	<path class="st0" d="M106.9,9.7h-6.1v18h-4.3v-18h-6V6.4h16.4V9.7z"/>
	<path class="st0" d="M113.6,20v7.7h-4.3V6.4h8.2c2.5,0,4.4,0.6,5.8,1.9s2.1,2.9,2.1,4.9s-0.7,3.7-2.1,4.9s-3.3,1.9-5.8,1.9H113.6z
		 M113.6,16.7h3.9c1.2,0,2.1-0.3,2.7-1c0.6-0.7,0.9-1.5,0.9-2.5c0-1-0.3-1.9-0.9-2.5c-0.6-0.7-1.5-1-2.7-1h-3.9V16.7z"/>
	<path class="st0" d="M141.2,6.4h4.3v21.3h-4.3V13.5l-0.1,0l-8.6,14.3h-4.3V6.4h4.3v14.2l0.1,0L141.2,6.4z"/>
	<path class="st0" d="M153.6,20v7.7h-4.3V6.4h8.2c2.5,0,4.4,0.6,5.8,1.9s2.1,2.9,2.1,4.9s-0.7,3.7-2.1,4.9S160,20,157.5,20H153.6z
		 M153.6,16.7h3.9c1.2,0,2.1-0.3,2.7-1c0.6-0.7,0.9-1.5,0.9-2.5c0-1-0.3-1.9-0.9-2.5c-0.6-0.7-1.5-1-2.7-1h-3.9V16.7z"/>
	<path class="st0" d="M175.9,15.9l0.4,1.3l0.1,0l4.5-10.8h4.5l-7.8,17.3c-0.6,1.4-1.4,2.4-2.2,3.2s-2.1,1.1-3.6,1.1
		c-0.6,0-1.1-0.1-1.6-0.2c-0.5-0.1-1-0.3-1.6-0.4l0.5-3.1c0.4,0.1,0.8,0.2,1.2,0.3c0.3,0.1,0.7,0.1,1,0.1c0.8,0,1.4-0.2,1.8-0.5
		c0.4-0.3,0.8-0.9,1-1.5l0.3-0.8l-7.5-15.5h4.6L175.9,15.9z"/>
	<path class="st0" d="M200.5,6.4h4.3v21.3h-4.3V13.5l-0.1,0l-8.6,14.3h-4.3V6.4h4.3v14.2l0.1,0L200.5,6.4z M201.1,0L201.1,0
		c0.1,1.3-0.4,2.3-1.3,3.1c-0.9,0.8-2.1,1.2-3.7,1.2c-1.6,0-2.8-0.4-3.7-1.2c-0.9-0.8-1.3-1.8-1.3-3l0-0.1h3.1
		c0,0.5,0.1,0.9,0.4,1.3c0.3,0.3,0.8,0.5,1.4,0.5c0.6,0,1.1-0.2,1.4-0.5S198,0.5,198,0H201.1z"/>
	<path class="st0" d="M224.6,20.7L224.6,20.7c0.1,2.4-0.6,4.1-2.1,5.4s-3.4,1.9-5.9,1.9c-2.6,0-4.6-0.8-6.2-2.5
		c-1.6-1.6-2.4-3.8-2.4-6.4V15c0-2.6,0.8-4.7,2.3-6.4c1.5-1.7,3.5-2.5,6-2.5c2.6,0,4.6,0.6,6.1,1.9s2.2,3.1,2.1,5.4l0,0.1h-4.2
		c0-1.4-0.3-2.4-1-3.1c-0.7-0.7-1.7-1-3.1-1c-1.3,0-2.3,0.5-3,1.5c-0.7,1-1.1,2.4-1.1,4v4.3c0,1.6,0.4,3,1.1,4s1.8,1.6,3.2,1.6
		c1.3,0,2.2-0.3,2.9-1c0.6-0.7,0.9-1.7,0.9-3.1H224.6z"/>
	<path class="st0" d="M229.9,27.8h-4.6l4.6-9.5c-1.1-0.6-2-1.3-2.5-2.2c-0.6-0.9-0.8-2-0.8-3.2c0-2,0.7-3.6,2.1-4.7
		c1.4-1.1,3.3-1.7,5.8-1.7h7.4v21.3h-4.3v-8.2h-3.6L229.9,27.8z M237.5,9.7h-3.1c-1.2,0-2.1,0.3-2.7,0.8s-0.9,1.4-0.9,2.4
		s0.3,1.9,0.9,2.5c0.6,0.6,1.5,1,2.7,1h3.1V9.7z"/>
	<path class="st0" d="M27.7,42.4H32v21.3h-4.3V49.5l-0.1,0L19,63.8h-4.3V42.4H19v14.2l0.1,0L27.7,42.4z"/>
	<path class="st0" d="M43.4,63.8V42.4h7c2.5,0,4.5,0.5,5.9,1.5c1.4,1,2.1,2.4,2.1,4.4c0,1-0.3,1.9-0.8,2.6s-1.3,1.4-2.2,1.7
		c1.3,0.2,2.3,0.8,3,1.7s1,2,1,3.2c0,2-0.7,3.6-2,4.6s-3.3,1.6-5.7,1.6H43.4z M47.6,51.4h2.9c1.1,0,2-0.2,2.6-0.7s0.9-1.2,0.9-2.1
		c0-1-0.3-1.7-0.9-2.2s-1.5-0.7-2.8-0.7h-2.7V51.4z M47.6,54.3v6.2h4c1.1,0,2-0.2,2.6-0.7c0.6-0.5,0.9-1.2,0.9-2.2
		c0-1-0.3-1.8-0.9-2.4s-1.5-0.8-2.7-0.8H47.6z"/>
	<path class="st0" d="M66.7,49.9h3.7c2.5,0,4.4,0.6,5.8,1.9s2.2,2.9,2.2,5c0,2.1-0.7,3.7-2.2,5s-3.4,1.9-5.8,1.9h-7.9V42.4h4.3V49.9
		z M66.7,53.2v7.3h3.7c1.2,0,2.1-0.4,2.8-1.1s1-1.6,1-2.6c0-1-0.3-1.8-1-2.5c-0.6-0.7-1.6-1-2.8-1H66.7z M84.6,63.8h-4.3V42.4h4.3
		V63.8z"/>
	<path class="st0" d="M101.3,42.4h4.3v21.3h-4.3V49.5l-0.1,0l-8.6,14.3h-4.3V42.4h4.3v14.2l0.1,0L101.3,42.4z"/>
	<path class="st0" d="M123.3,45.7h-9.6v18h-4.3V42.4h13.9V45.7z"/>
	<path class="st0" d="M130.4,56v7.7h-4.3V42.4h8.2c2.5,0,4.4,0.6,5.8,1.9s2.1,2.9,2.1,4.9s-0.7,3.7-2.1,4.9s-3.3,1.9-5.8,1.9H130.4z
		 M130.4,52.7h3.9c1.2,0,2.1-0.3,2.7-1s0.9-1.5,0.9-2.5c0-1-0.3-1.9-0.9-2.5c-0.6-0.7-1.5-1-2.7-1h-3.9V52.7z"/>
	<path class="st0" d="M149.5,49.9h3.7c2.5,0,4.4,0.6,5.8,1.9s2.2,2.9,2.2,5c0,2.1-0.7,3.7-2.2,5c-1.5,1.3-3.4,1.9-5.8,1.9h-7.9V42.4
		h4.3V49.9z M149.5,53.2v7.3h3.7c1.2,0,2.1-0.4,2.8-1.1s1-1.6,1-2.6c0-1-0.3-1.8-1-2.5c-0.6-0.7-1.6-1-2.8-1H149.5z M167.4,63.8
		h-4.3V42.4h4.3V63.8z"/>
	<path class="st0" d="M171.3,63.8V42.4h7c2.5,0,4.5,0.5,5.9,1.5c1.4,1,2.1,2.4,2.1,4.4c0,1-0.3,1.9-0.8,2.6s-1.3,1.4-2.2,1.7
		c1.3,0.2,2.3,0.8,3,1.7s1,2,1,3.2c0,2-0.7,3.6-2,4.6s-3.3,1.6-5.7,1.6H171.3z M175.5,51.4h2.9c1.1,0,2-0.2,2.6-0.7s0.9-1.2,0.9-2.1
		c0-1-0.3-1.7-0.9-2.2c-0.6-0.5-1.5-0.7-2.8-0.7h-2.7V51.4z M175.5,54.3v6.2h4c1.1,0,2-0.2,2.6-0.7c0.6-0.5,0.9-1.2,0.9-2.2
		c0-1-0.3-1.8-0.9-2.4s-1.5-0.8-2.7-0.8H175.5z"/>
	<path class="st0" d="M201.5,59.2h-6.9l-1.4,4.6h-4.5l7.2-21.3h4.4l7.2,21.3h-4.5L201.5,59.2z M195.6,55.8h4.8l-2.4-7.5H198
		L195.6,55.8z"/>
	<path class="st0" d="M222.3,42.4h4.3v21.3h-4.3V49.5l-0.1,0l-8.6,14.3h-4.3V42.4h4.3v14.2l0.1,0L222.3,42.4z M222.9,36L222.9,36
		c0.1,1.3-0.4,2.3-1.3,3.1c-0.9,0.8-2.1,1.2-3.7,1.2c-1.6,0-2.8-0.4-3.7-1.2c-0.9-0.8-1.3-1.8-1.3-3l0-0.1h3.1
		c0,0.5,0.1,0.9,0.4,1.3c0.3,0.3,0.8,0.5,1.4,0.5c0.6,0,1.1-0.2,1.4-0.5s0.4-0.8,0.4-1.3H222.9z"/>
	<path class="st0" d="M52.6,96.9c-0.7,0.9-1.7,1.6-3,2.3c-1.3,0.6-3,1-5.1,1c-2.6,0-4.7-0.8-6.3-2.4s-2.5-3.7-2.5-6.3v-4.5
		c0-2.6,0.8-4.7,2.4-6.3c1.6-1.6,3.6-2.4,6.1-2.4c2.6,0,4.6,0.6,6,1.9c1.4,1.2,2.1,2.9,2,4.9l0,0.1h-4c0-1.1-0.3-2-1-2.6
		c-0.7-0.6-1.6-0.9-2.9-0.9c-1.3,0-2.4,0.5-3.2,1.5c-0.8,1-1.2,2.3-1.2,3.9v4.5c0,1.6,0.4,2.9,1.2,3.9s1.9,1.5,3.3,1.5
		c1,0,1.8-0.1,2.4-0.3s1-0.5,1.4-0.8v-4.1h-4.1v-3h8.4V96.9z"/>
	<path class="st0" d="M67.3,95.2h-6.9L59,99.8h-4.5l7.2-21.3h4.4l7.2,21.3h-4.5L67.3,95.2z M61.5,91.8h4.8l-2.4-7.5h-0.1L61.5,91.8z
		"/>
	<path class="st0" d="M79.6,96.5h9.6v3.3H75.3V78.4h4.3V96.5z"/>
	<path class="st0" d="M103.4,95.2h-6.9L95,99.8h-4.5l7.2-21.3h4.4l7.2,21.3h-4.5L103.4,95.2z M97.5,91.8h4.8l-2.4-7.5h-0.1
		L97.5,91.8z"/>
	<path class="st0" d="M118.9,86l4-7.6h5L121.5,89l6.7,10.8h-5.2l-4.1-7.7l-4.1,7.7h-5l6.5-10.8L110,78.4h5L118.9,86z"/>
	<path class="st0" d="M138,88.3L138,88.3l4.7-9.8h4.7l-7.3,13.8v7.5h-4.3v-7.7l-7.2-13.6h4.7L138,88.3z"/>
	<path class="st0" d="M168.1,94.2c0-0.8-0.3-1.5-0.9-2c-0.6-0.5-1.6-1-3-1.4c-2.5-0.7-4.3-1.6-5.6-2.6c-1.3-1-1.9-2.4-1.9-4.1
		c0-1.7,0.7-3.2,2.2-4.3s3.3-1.7,5.5-1.7c2.4,0,4.3,0.6,5.7,1.8s2.1,2.8,2.1,4.7l0,0.1H168c0-1.1-0.3-1.9-1-2.5
		c-0.6-0.6-1.5-0.9-2.7-0.9c-1.1,0-1.9,0.3-2.4,0.8s-0.9,1.2-0.9,1.9c0,0.7,0.3,1.3,0.9,1.8c0.6,0.5,1.7,1,3.2,1.5
		c2.3,0.7,4.1,1.5,5.4,2.6c1.2,1.1,1.8,2.5,1.8,4.2c0,1.8-0.7,3.3-2.1,4.3s-3.3,1.6-5.7,1.6c-2.3,0-4.3-0.6-5.9-1.7
		s-2.4-2.8-2.4-5.1l0-0.1h4.1c0,1.3,0.4,2.2,1.1,2.8s1.7,0.9,3,0.9c1.1,0,2-0.2,2.6-0.7C167.8,95.6,168.1,95,168.1,94.2z"/>
	<path class="st0" d="M181.4,96.8c1.1,0,1.9-0.4,2.6-1.2c0.7-0.8,1-1.9,1-3.3v-1.4c-0.5,0.6-1,1.1-1.7,1.4s-1.4,0.5-2.1,0.5
		c-2,0-3.5-0.6-4.7-1.9c-1.1-1.3-1.7-3-1.7-5.3c0-2.1,0.7-3.9,2-5.3s3-2.1,5.1-2.1c2.1,0,3.9,0.7,5.3,2.2s2,3.4,2,6v5.7
		c0,2.5-0.7,4.4-2.2,5.9c-1.5,1.4-3.4,2.2-5.6,2.2c-0.7,0-1.5-0.1-2.3-0.2c-0.8-0.2-1.5-0.4-2.2-0.7l0.7-3.1
		c0.6,0.3,1.2,0.4,1.8,0.6S180.6,96.8,181.4,96.8z M181.9,89.6c0.7,0,1.3-0.1,1.8-0.4s0.9-0.7,1.3-1.1v-2.5c0-1.3-0.3-2.4-0.8-3.1
		s-1.3-1.1-2.2-1.1c-0.9,0-1.6,0.4-2.1,1.2c-0.5,0.8-0.8,1.8-0.8,2.9c0,1.2,0.2,2.2,0.7,2.9S181,89.6,181.9,89.6z"/>
	<path class="st0" d="M200.9,87.9h5.3v3.7h-5.3v6.1h-4v-6.1h-5.3v-3.7h5.3v-5.8h4V87.9z"/>
</g>
</svg>
