<?xml version="1.0" encoding="utf-8"?>
<!-- Generator: Adobe Illustrator 21.0.0, SVG Export Plug-In . SVG Version: 6.00 Build 0)  -->
<svg version="1.1" id="Слой_1" xmlns="http://www.w3.org/2000/svg" xmlns:xlink="http://www.w3.org/1999/xlink" x="0px" y="0px"
	 viewBox="0 0 170.5 117.8" style="enable-background:new 0 0 170.5 117.8;" xml:space="preserve">
<style type="text/css">
	.st0{fill:#FFFFFF;}
</style>
<g>
	<path class="st0" d="M17.3,27.8V6.4h7c2.5,0,4.5,0.5,5.9,1.5s2.1,2.4,2.1,4.4c0,1-0.3,1.9-0.8,2.6s-1.3,1.4-2.2,1.7
		c1.3,0.2,2.3,0.8,3,1.7s1,2,1,3.2c0,2-0.7,3.6-2,4.6c-1.3,1.1-3.3,1.6-5.7,1.6L17.3,27.8L17.3,27.8z M21.6,15.4h2.9
		c1.1,0,2-0.2,2.6-0.7s0.9-1.2,0.9-2.1c0-1-0.3-1.7-0.9-2.2s-1.5-0.7-2.8-0.7h-2.7V15.4z M21.6,18.3v6.2h4c1.1,0,2-0.2,2.6-0.7
		s0.9-1.2,0.9-2.2s-0.3-1.8-0.9-2.4s-1.5-0.8-2.7-0.8h-3.9V18.3z"/>
	<path class="st0" d="M40.6,13.9h3.7c2.5,0,4.4,0.6,5.8,1.9s2.2,2.9,2.2,5s-0.7,3.7-2.2,5s-3.4,1.9-5.8,1.9h-7.9V6.4h4.3L40.6,13.9
		L40.6,13.9z M40.6,17.2v7.3h3.7c1.2,0,2.1-0.4,2.8-1.1s1-1.6,1-2.6s-0.3-1.8-1-2.5c-0.6-0.7-1.6-1-2.8-1L40.6,17.2L40.6,17.2z
		 M58.5,27.8h-4.3V6.4h4.3V27.8z"/>
	<path class="st0" d="M75.2,6.4h4.3v21.3h-4.3V13.5h-0.1l-8.6,14.3h-4.3V6.4h4.3v14.2h0.1L75.2,6.4z"/>
	<path class="st0" d="M97.3,9.7h-9.6v18h-4.3V6.4h13.9V9.7z"/>
	<path class="st0" d="M104.3,20v7.7H100V6.4h8.2c2.5,0,4.4,0.6,5.8,1.9s2.1,2.9,2.1,4.9s-0.7,3.7-2.1,4.9s-3.3,1.9-5.8,1.9H104.3z
		 M104.3,16.7h3.9c1.2,0,2.1-0.3,2.7-1c0.6-0.6,0.9-1.5,0.9-2.5s-0.3-1.9-0.9-2.5c-0.6-0.7-1.5-1-2.7-1h-3.9V16.7z"/>
	<path class="st0" d="M127.7,23.2h-6.9l-1.4,4.6h-4.5l7.2-21.3h4.4l7.2,21.3h-4.5L127.7,23.2z M121.8,19.8h4.8l-2.4-7.5h-0.1
		L121.8,19.8z"/>
	<path class="st0" d="M148.5,6.4h4.3v21.3h-4.3V13.5h-0.1l-8.6,14.3h-4.3V6.4h4.3v14.2h0.1L148.5,6.4z M149.1,0L149.1,0
		c0.1,1.3-0.4,2.3-1.3,3.1c-0.9,0.8-2.1,1.2-3.7,1.2c-1.6,0-2.8-0.4-3.7-1.2s-1.3-1.8-1.3-3V0h3.1c0,0.5,0.1,0.9,0.4,1.3
		s0.8,0.5,1.4,0.5c0.6,0,1.1-0.2,1.4-0.5S146,0.5,146,0H149.1z"/>
	<path class="st0" d="M26,52.2c0-0.8-0.3-1.5-0.9-2s-1.6-1-3-1.4c-2.5-0.7-4.3-1.6-5.6-2.6s-1.9-2.4-1.9-4.1c0-1.7,0.7-3.2,2.2-4.3
		c1.4-1.1,3.3-1.7,5.5-1.7c2.4,0,4.3,0.6,5.7,1.8s2.1,2.8,2.1,4.7v0.1H26c0-1.1-0.3-1.9-1-2.5c-0.6-0.6-1.5-0.9-2.7-0.9
		c-1.1,0-1.9,0.3-2.4,0.8S19,41.3,19,42s0.3,1.3,0.9,1.8s1.7,1,3.2,1.5c2.3,0.7,4.1,1.5,5.4,2.6c1.2,1.1,1.8,2.5,1.8,4.2
		c0,1.8-0.7,3.3-2.1,4.3S24.9,58,22.5,58c-2.3,0-4.3-0.6-5.9-1.7s-2.4-2.8-2.4-5.1v-0.1h4.1c0,1.3,0.4,2.2,1.1,2.8s1.7,0.9,3,0.9
		c1.1,0,2-0.2,2.6-0.7S26,53,26,52.2z"/>
	<path class="st0" d="M44.6,53.2h-6.9l-1.4,4.6h-4.5L39,36.4h4.4l7.2,21.3H46L44.6,53.2z M38.7,49.8h4.8l-2.4-7.5H41L38.7,49.8z"/>
	<path class="st0" d="M63.6,52.2L63.6,52.2l5.6-15.7h5.6v21.3h-4.3V43.2h-0.1l-5.3,14.6h-2.9l-5.3-14.6h-0.1v14.6h-4.3V36.4h5.6
		L63.6,52.2z"/>
	<path class="st0" d="M89.8,52.2c0-0.8-0.3-1.5-0.9-2s-1.6-1-3-1.4c-2.5-0.7-4.3-1.6-5.6-2.6s-1.9-2.4-1.9-4.1
		c0-1.7,0.7-3.2,2.2-4.3c1.4-1.1,3.3-1.7,5.5-1.7c2.4,0,4.3,0.6,5.7,1.8s2.1,2.8,2.1,4.7v0.1h-4.1c0-1.1-0.3-1.9-1-2.5
		c-0.6-0.6-1.5-0.9-2.7-0.9c-1.1,0-1.9,0.3-2.4,0.8s-0.9,1.2-0.9,1.9s0.3,1.3,0.9,1.8s1.7,1,3.2,1.5c2.3,0.7,4.1,1.5,5.4,2.6
		c1.2,1.1,1.8,2.5,1.8,4.2c0,1.8-0.7,3.3-2.1,4.3S88.7,58,86.3,58c-2.3,0-4.3-0.6-5.9-1.7S78,53.5,78,51.2v-0.1h4.1
		c0,1.3,0.4,2.2,1.1,2.8s1.7,0.9,3,0.9c1.1,0,2-0.2,2.6-0.7S89.8,53,89.8,52.2z"/>
	<path class="st0" d="M114.1,36.4v14c0,2.4-0.8,4.3-2.4,5.6s-3.7,2-6.2,2s-4.6-0.7-6.2-2S97,52.8,97,50.4v-14h4.3v14
		c0,1.4,0.4,2.5,1.1,3.3s1.8,1.1,3.1,1.1c1.3,0,2.4-0.4,3.1-1.1s1.2-1.8,1.2-3.3v-14H114.1z"/>
	<path class="st0" d="M135.1,57.8h-4.3l-8.6-14.4h-0.1v14.4h-4.3V36.4h4.3l8.6,14.4h0.1V36.4h4.3L135.1,57.8L135.1,57.8z"/>
	<path class="st0" d="M155.3,54.9c-0.7,0.9-1.7,1.6-3,2.3c-1.3,0.6-3,1-5.1,1c-2.6,0-4.7-0.8-6.3-2.4s-2.5-3.7-2.5-6.3V45
		c0-2.6,0.8-4.7,2.4-6.3c1.6-1.6,3.6-2.4,6.1-2.4c2.6,0,4.6,0.6,6,1.9c1.4,1.2,2.1,2.9,2,4.9v0.1h-4c0-1.1-0.3-2-1-2.6
		s-1.6-0.9-2.9-0.9c-1.3,0-2.4,0.5-3.2,1.5s-1.2,2.3-1.2,3.9v4.5c0,1.6,0.4,2.9,1.2,3.9s1.9,1.5,3.3,1.5c1,0,1.8-0.1,2.4-0.3
		s1-0.5,1.4-0.8v-4.1h-4.1v-3h8.4v8.1C155.2,54.9,155.3,54.9,155.3,54.9z"/>
	<path class="st0" d="M16.9,84.9c-0.7,0.9-1.7,1.6-3,2.3c-1.3,0.6-3,1-5.1,1c-2.6,0-4.7-0.8-6.3-2.4S0,81.9,0,79.3v-4.5
		c0-2.6,0.8-4.7,2.4-6.3C4,67,6,66.1,8.5,66.1c2.6,0,4.6,0.6,6,1.9c1.4,1.2,2.1,2.9,2,4.9V73h-4c0-1.1-0.3-2-1-2.6s-1.6-0.9-2.9-0.9
		S6.2,70,5.4,71s-1.2,2.3-1.2,3.9v4.5c0,1.6,0.4,2.9,1.2,3.9s1.9,1.5,3.3,1.5c1,0,1.8-0.1,2.4-0.3s1-0.5,1.4-0.8v-4.1h-4v-3h8.4
		V84.9z"/>
	<path class="st0" d="M31.6,83.2h-6.9l-1.4,4.6h-4.5L26,66.4h4.4l7.2,21.3h-4.5L31.6,83.2z M25.8,79.8h4.8l-2.4-7.5h-0.1L25.8,79.8z
		"/>
	<path class="st0" d="M43.9,84.5h9.6v3.3H39.6V66.4h4.3C43.9,66.4,43.9,84.5,43.9,84.5z"/>
	<path class="st0" d="M67.6,83.2h-6.9l-1.4,4.6h-4.5L62,66.4h4.4l7.2,21.3h-4.5L67.6,83.2z M61.8,79.8h4.8l-2.4-7.5h-0.1L61.8,79.8z
		"/>
	<path class="st0" d="M83.2,74l4-7.6h5L85.8,77l6.7,10.8h-5.2l-4.1-7.7l-4.1,7.7h-5L80.6,77l-6.3-10.6h5L83.2,74z"/>
	<path class="st0" d="M102.2,76.3L102.2,76.3l4.7-9.8h4.7l-7.3,13.8v7.5H100v-7.7l-7.2-13.6h4.7L102.2,76.3z"/>
	<path class="st0" d="M132.4,82.2c0-0.8-0.3-1.5-0.9-2s-1.6-1-3-1.4c-2.5-0.7-4.3-1.6-5.6-2.6s-1.9-2.4-1.9-4.1s0.7-3.2,2.2-4.3
		c1.4-1.1,3.3-1.7,5.5-1.7c2.4,0,4.3,0.6,5.7,1.8s2.1,2.8,2.1,4.7v0.1h-4.1c0-1.1-0.3-1.9-1-2.5c-0.6-0.6-1.5-0.9-2.7-0.9
		c-1.1,0-1.9,0.3-2.4,0.8s-0.9,1.2-0.9,1.9c0,0.7,0.3,1.3,0.9,1.8s1.7,1,3.2,1.5c2.3,0.7,4.1,1.5,5.4,2.6c1.2,1.1,1.8,2.5,1.8,4.2
		c0,1.8-0.7,3.3-2.1,4.3s-3.3,1.6-5.7,1.6c-2.3,0-4.3-0.6-5.9-1.7s-2.4-2.8-2.4-5.1v-0.1h4.1c0,1.3,0.4,2.2,1.1,2.8s1.7,0.9,3,0.9
		c1.1,0,2-0.2,2.6-0.7S132.4,83,132.4,82.2z"/>
	<path class="st0" d="M145.6,84.8c1.1,0,1.9-0.4,2.6-1.2c0.7-0.8,1-1.9,1-3.3v-1.4c-0.5,0.6-1,1.1-1.7,1.4s-1.4,0.5-2.1,0.5
		c-2,0-3.5-0.6-4.7-1.9s-1.7-3-1.7-5.3c0-2.1,0.7-3.9,2-5.3s3-2.1,5.1-2.1s3.9,0.7,5.3,2.2s2,3.4,2,6v5.7c0,2.5-0.7,4.4-2.2,5.9
		s-3.4,2.2-5.6,2.2c-0.7,0-1.5-0.1-2.3-0.2c-0.8-0.2-1.5-0.4-2.2-0.7l0.7-3.1c0.6,0.3,1.2,0.4,1.8,0.6S144.9,84.8,145.6,84.8z
		 M146.1,77.6c0.7,0,1.3-0.1,1.8-0.4s0.9-0.7,1.3-1.1v-2.5c0-1.3-0.3-2.4-0.8-3.1s-1.3-1.1-2.2-1.1s-1.6,0.4-2.1,1.2
		c-0.5,0.8-0.8,1.8-0.8,2.9c0,1.2,0.2,2.2,0.7,2.9S145.2,77.6,146.1,77.6z"/>
	<path class="st0" d="M165.2,75.9h5.3v3.7h-5.3v6.1h-4v-6.1h-5.3v-3.7h5.3v-5.8h4V75.9z"/>
	<path class="st0" d="M35.6,117.8h-4.3v-8.9h-8.7v8.9h-4.3V96.4h4.3v9.2h8.7v-9.2h4.3V117.8z"/>
	<path class="st0" d="M50.9,113.2H44l-1.4,4.6h-4.5l7.2-21.3h4.4l7.2,21.3h-4.5L50.9,113.2z M45,109.8h4.8l-2.4-7.5h-0.1L45,109.8z"
		/>
	<path class="st0" d="M76.6,117.8h-5v-17.1h-4.3v-3.8l9.2-0.8v21.7H76.6z"/>
	<path class="st0" d="M91.2,103.6l3.5-7.2h5.7L94.3,107l6.6,10.8h-6l-3.6-7.3l-3.6,7.3H82l6.3-10.8l-6.1-10.6h5.7L91.2,103.6z"/>
	<path class="st0" d="M102.6,117.8V96.4h7c2.6,0,4.7,0.5,6.2,1.5s2.2,2.4,2.2,4.4c0,1-0.2,1.9-0.7,2.7c-0.5,0.8-1.2,1.4-2.2,1.8
		c1.3,0.3,2.2,0.8,2.8,1.7s0.9,1.9,0.9,3c0,2.1-0.7,3.7-2.1,4.7s-3.4,1.6-6,1.6C110.7,117.8,102.6,117.8,102.6,117.8z M107.5,105.3
		h1.9c1.2,0,2.1-0.2,2.7-0.6s0.9-1,0.9-1.9s-0.3-1.6-0.8-2c-0.6-0.4-1.4-0.6-2.6-0.6h-2L107.5,105.3L107.5,105.3z M107.5,108.6v5.3
		h3.2c1.1,0,1.8-0.2,2.4-0.6c0.5-0.4,0.8-1.1,0.8-1.9c0-0.9-0.2-1.6-0.7-2.1s-1.2-0.7-2.3-0.7h-0.2
		C110.7,108.6,107.5,108.6,107.5,108.6z"/>
	<path class="st0" d="M134.2,108.6h-7.5v5.3h9v3.8h-14V96.4h14v3.8h-9v4.6h7.5V108.6z"/>
	<path class="st0" d="M153.3,100.3h-5.6v17.5h-5v-17.5h-5.5v-3.8h16.1V100.3z"/>
</g>
</svg>
