<?xml version="1.0" encoding="utf-8"?>
<!-- Generator: Adobe Illustrator 19.2.1, SVG Export Plug-In . SVG Version: 6.00 Build 0)  -->
<svg version="1.1" id="_x2014_лой_x5F_1" xmlns="http://www.w3.org/2000/svg" xmlns:xlink="http://www.w3.org/1999/xlink"
	 x="0px" y="0px" viewBox="0 0 992.1 992.1" style="enable-background:new 0 0 992.1 992.1;" xml:space="preserve">
<style type="text/css">
	.st0{fill-rule:evenodd;clip-rule:evenodd;fill:#B6DE5A;}
	.st1{fill-rule:evenodd;clip-rule:evenodd;}
</style>
<path class="st0" d="M621,240.3c5.3,0.1,10.5,1.2,15.4,3.2c2.9,1.1,6,0.4,8.1-1.9l3.8-4.2c2-2.2,2.8-4.8,2.4-7.7
	c-0.5-3.7,0.6-7.5,3.3-10.5c4.9-5.4,13.2-5.8,18.6-0.9c5.4,4.9,5.8,13.2,0.9,18.6c-2.7,3-6.4,4.4-10.1,4.3c-2.9-0.1-5.5,1-7.4,3.2
	l-1.9,2.1c-2.5,2.7-2.5,6.8-0.1,9.6c3.8,4.5,6.9,9.7,8.7,15.6c0.9,2.8,3.3,4.7,6.2,5c3,0.3,5.6-1.1,7.1-3.8c1.6-2.9,4.3-5.3,7.8-6.3
	c7-2.1,14.3,1.8,16.4,8.8c2.1,7-1.8,14.3-8.8,16.4c-3.7,1.1-7.4,0.5-10.5-1.3c-2.8-1.6-6.1-1.3-8.5,0.8c-2.4,2.1-3.1,5.4-1.8,8.3
	c3.2,7.2,7.4,13.6,12.8,19.3c2.1,2.3,5.3,2.9,8.1,1.7c2.8-1.2,4.6-3.9,4.4-7c0-0.5-0.1-1.1-0.2-1.6c-0.8-3.6,0-7.6,2.5-10.7
	c4.4-5.7,12.7-6.8,18.5-2.4c5.7,4.4,6.8,12.7,2.4,18.5c-2.4,3.2-6.1,4.9-9.8,5.1c-2,0.1-3.7,0.7-5.2,1.8c-1.8,1.3-2.9,3.3-3,5.5
	c-0.1,2.3,0.8,4.3,2.5,5.8c5.3,4.7,10.1,10,14.2,15.9c2.1,3.1,6.3,4,9.5,2.2l1.1-0.6c2.5-1.4,4.2-3.7,4.7-6.6c0.7-3.6,2.9-7,6.4-8.9
	c6.3-3.6,14.4-1.4,17.9,4.9c3.6,6.3,1.4,14.4-4.9,17.9c-3.5,2-7.5,2.2-11,0.9c-2.7-1-5.5-0.8-8,0.7l-2,1.1c-3.1,1.8-4.4,5.4-3.2,8.7
	c2.3,6.5,3.9,13.2,4.6,20c0.4,3.8,3.7,6.6,7.5,6.4l3.2-0.1c2.9-0.1,5.4-1.4,7.2-3.7c2.3-2.9,5.8-4.8,9.8-5
	c7.3-0.3,13.4,5.4,13.7,12.6c0.3,7.3-5.4,13.4-12.6,13.7c-4,0.2-7.7-1.5-10.2-4.2c-2-2.1-4.5-3.2-7.5-3.1l-4.7,0.2
	c-3.5,0.1-6.3,2.7-6.9,6.1c-1,6.5-2.7,12.8-5.1,18.9c-1.4,3.5,0.2,7.5,3.6,9.2l4.7,2.3c2.6,1.3,5.4,1.3,8.1,0.1
	c3.4-1.5,7.4-1.5,11,0.2c6.5,3.2,9.3,11,6.1,17.6c-3.2,6.5-11,9.3-17.6,6.1c-3.6-1.7-6.1-4.9-7-8.5c-0.7-2.8-2.5-5-5.1-6.2l-6-2.9
	c-3.2-1.5-6.9-0.6-9,2.2c-3.7,5-7.9,9.5-12.5,13.7c-2.7,2.4-3.3,6.4-1.2,9.5l4,5.9c1.6,2.4,4,3.9,6.9,4.2c3.7,0.4,7.2,2.4,9.4,5.7
	c4.1,6,2.5,14.2-3.6,18.3c-6,4.1-14.2,2.5-18.3-3.6c-2.2-3.3-2.8-7.3-1.8-10.9c0.8-2.8,0.3-5.5-1.3-8l-4-6c-2-3-5.9-4.1-9.2-2.4
	c-2.9,1.4-5.9,2.7-9,3.8c-3.4,1.2-5.4,4.8-4.6,8.4l0.8,3.6c0.6,2.9,2.3,5.1,4.9,6.4c3.3,1.8,5.8,4.9,6.7,8.8
	c1.6,7.1-2.9,14.1-10,15.7l-1,0.2c-7.1,1.6-14.1-2.9-15.7-10c-0.9-3.9,0.1-7.8,2.3-10.8c1.8-2.3,2.3-5,1.7-7.9l-0.8-3.6
	c-0.8-3.6-4.1-6-7.7-5.7c-3.3,0.3-6.5,0.4-9.8,0.3c-3.7-0.1-6.8,2.5-7.3,6.1l-1.1,7.1c-0.5,2.9,0.3,5.6,2.2,7.8
	c2.4,2.8,3.6,6.7,3,10.6c-1.1,7.2-7.9,12.1-15.1,10.9c-7.2-1.1-12.1-7.9-10.9-15.1c0.6-4,3-7.2,6.1-9.1c2.5-1.5,4-3.8,4.5-6.7
	l1.1-7.1c0.6-3.6-1.6-7-5.1-8.1c-6-1.8-11.7-4.2-17.1-7.1c-3.1-1.7-6.8-1-9.1,1.8l-4.2,5.1c-1.9,2.3-2.6,4.9-2,7.8
	c0.6,3.7-0.2,7.6-2.8,10.7c-4.6,5.6-12.9,6.4-18.5,1.8c-5.6-4.6-6.4-12.9-1.8-18.5c2.5-3.1,6.2-4.7,9.9-4.8c2.9-0.1,5.4-1.3,7.3-3.5
	l3.3-4c2.4-2.9,2.2-7.2-0.6-9.8c-4.7-4.5-8.9-9.5-12.6-15c-1.9-2.9-5.6-4-8.8-2.7l-4.4,1.8c-2.7,1.1-4.6,3.2-5.5,5.9
	c-1.1,3.5-3.8,6.6-7.5,8.1c-6.7,2.8-14.4-0.4-17.2-7.1c-2.8-6.7,0.4-14.4,7.1-17.2c3.7-1.5,7.7-1.3,11,0.4c2.6,1.3,5.4,1.4,8.1,0.3
	l3-1.2c3.5-1.5,5.3-5.4,4.1-9c-2.2-6.5-3.6-13.3-4.2-20.1c-0.3-3.5-3.1-6.3-6.6-6.6l-2.3-0.2c-2.9-0.2-5.5,0.7-7.6,2.8
	c-2.6,2.6-6.4,4.1-10.3,3.8c-7.2-0.6-12.6-7-12-14.2c0.6-7.2,7-12.6,14.2-12c4,0.3,7.4,2.4,9.6,5.4c1.7,2.4,4.1,3.7,7,4l1.3,0.1
	c3.7,0.3,7.1-2.3,7.7-6c1.2-7.1,3.4-13.9,6.2-20.4c0.9-2.1,0.9-4.2-0.2-6.3c-1-2-2.8-3.3-5-3.8c-1.8-0.4-3.6-0.2-5.4,0.6
	c-3.4,1.4-7.4,1.3-11-0.5c-6.5-3.3-9-11.3-5.6-17.7c3.3-6.5,11.3-9,17.7-5.6c3.6,1.8,5.9,5.1,6.8,8.7c0.1,0.5,0.3,1.1,0.5,1.5
	c1.2,2.9,3.9,4.6,6.9,4.5c3.1-0.1,5.7-2,6.6-5c2.5-7.4,3.6-15,3.5-22.9c-0.1-3.2-2.1-5.9-5.2-6.8c-3.1-0.9-6.2,0.2-8.1,2.8
	c-2,2.9-5.2,5-9,5.6c-7.2,1-13.9-4-14.9-11.2c-1-7.2,4-13.9,11.2-14.9c3.6-0.5,7,0.5,9.7,2.5c2.4,1.8,5.4,1.9,8,0.4
	c2.6-1.5,3.9-4.2,3.5-7.2c-0.8-6.1-0.3-12.2,1.3-17.8c1-3.5-0.8-7.2-4.1-8.7l-2.6-1.1c-2.7-1.1-5.5-1.1-8.1,0.2
	c-3.3,1.6-7.3,1.9-11,0.3c-6.7-2.8-9.8-10.6-7-17.3c2.8-6.7,10.6-9.8,17.3-7c3.7,1.6,6.3,4.6,7.4,8.2c0.9,2.8,2.7,4.8,5.4,6l5.2,2.2
	c2.8,1.2,6,0.6,8.1-1.7c3.6-3.8,7.8-7,12.6-9.3c3-1.5,4.6-4.8,3.9-8.1l-1.6-7.2c-0.6-2.9-2.3-5.1-4.9-6.4c-3.3-1.8-5.8-4.9-6.7-8.8
	c-1.6-7.1,2.9-14.1,10-15.7l1-0.2c7.1-1.6,14.1,2.9,15.7,10c0.9,3.9-0.1,7.8-2.3,10.8c-1.8,2.3-2.3,5-1.7,7.9l1.6,7.2
	C614.8,238,617.6,240.3,621,240.3z"/>
<g>
	<path class="st1" d="M597.5,275.5L597.5,275.5c1.3-0.3,2.5,0.5,2.8,1.8l1.3,5.7c0.3,1.3-0.5,2.5-1.8,2.8h0
		c-1.3,0.3-2.5-0.5-2.8-1.8l-1.3-5.7C595.4,277,596.2,275.8,597.5,275.5z"/>
	<path class="st1" d="M635.3,267.2L635.3,267.2c1.3-0.3,2.5,0.5,2.8,1.8l1.3,5.7c0.3,1.3-0.5,2.5-1.8,2.8h0
		c-1.3,0.3-2.5-0.5-2.8-1.8l-1.3-5.7C633.2,268.7,634,267.4,635.3,267.2z"/>
</g>
</svg>
