<?xml version="1.0" encoding="utf-8"?>
<!-- Generator: Adobe Illustrator 19.2.1, SVG Export Plug-In . SVG Version: 6.00 Build 0)  -->
<svg version="1.1" id="_x2014_лой_x5F_1" xmlns="http://www.w3.org/2000/svg" xmlns:xlink="http://www.w3.org/1999/xlink"
	 x="0px" y="0px" viewBox="0 0 992.1 992.1" style="enable-background:new 0 0 992.1 992.1;" xml:space="preserve">
<style type="text/css">
	.st0{fill-rule:evenodd;clip-rule:evenodd;fill:#F295BE;}
	.st1{fill-rule:evenodd;clip-rule:evenodd;}
</style>
<path class="st0" d="M353.5,543.3c-2.2,3.1-4.8,5.6-7.8,7.7c-1.8,1.2-2.6,3.3-2,5.4l1,3.9c0.5,2,1.7,3.5,3.5,4.4
	c2.3,1.2,4.1,3.3,4.8,6c1.2,4.9-1.8,9.9-6.7,11.2c-4.9,1.2-9.9-1.8-11.2-6.7c-0.7-2.7-0.1-5.5,1.4-7.6c1.2-1.7,1.5-3.6,1-5.6
	l-0.5-1.9c-0.6-2.5-3-4.1-5.5-3.8c-4.1,0.5-8.3,0.2-12.5-1c-2-0.6-4,0-5.3,1.7c-1.3,1.6-1.5,3.7-0.6,5.6c1.1,2.1,1.4,4.6,0.7,7
	c-1.5,4.9-6.6,7.6-11.5,6.1c-4.9-1.5-7.6-6.6-6.1-11.5c0.8-2.6,2.6-4.5,4.8-5.6c2-1,3.1-3,2.8-5.3c-0.3-2.2-1.9-3.9-4.1-4.3
	c-5.4-1-10.8-1-16.2-0.1c-2.1,0.4-3.7,1.9-4.1,4c-0.4,2.1,0.5,4.2,2.4,5.3c0.3,0.2,0.7,0.4,1,0.5c2.4,1,4.4,3,5.3,5.6
	c1.6,4.8-1,10-5.8,11.6c-4.8,1.6-10-1-11.6-5.8c-0.9-2.7-0.5-5.4,0.8-7.7c0.7-1.2,1-2.4,1-3.7c-0.1-1.6-0.8-2.9-2.1-3.9
	c-1.3-0.9-2.8-1.2-4.3-0.8c-4.8,1.3-9.7,2-14.8,2.1c-2.6,0-4.8,2.1-5,4.7l-0.1,0.9c-0.2,2,0.5,3.9,2,5.3c1.8,1.8,2.9,4.4,2.7,7.2
	c-0.4,5.1-4.8,8.9-9.9,8.5c-5.1-0.4-8.9-4.8-8.5-9.9c0.2-2.8,1.6-5.2,3.7-6.7c1.6-1.2,2.6-2.9,2.7-4.9l0.1-1.6
	c0.2-2.5-1.4-4.7-3.8-5.3c-4.7-1.2-9.2-2.9-13.4-5.1c-2.4-1.2-5.3-0.4-6.6,1.8l-1.2,1.9c-1.1,1.7-1.3,3.7-0.7,5.6
	c0.8,2.5,0.6,5.3-0.9,7.6c-2.7,4.3-8.3,5.7-12.7,3c-4.3-2.7-5.7-8.3-3-12.7c1.5-2.4,3.8-3.9,6.4-4.3c2-0.3,3.6-1.4,4.7-3.1l1.7-2.8
	c1.3-2.1,0.9-4.7-0.9-6.4c-3.4-3.1-6.4-6.6-9-10.3c-1.5-2.2-4.4-2.8-6.7-1.5l-3.1,1.9c-1.8,1-2.9,2.6-3.2,4.6
	c-0.5,2.6-2,4.9-4.4,6.3c-4.4,2.6-10,1.1-12.6-3.3c-2.6-4.4-1.1-10,3.3-12.6c2.4-1.4,5.2-1.6,7.7-0.8c1.9,0.7,3.9,0.5,5.6-0.6l4-2.4
	c2.1-1.2,3-3.8,2.2-6.1c-1.5-4.1-2.5-8.3-3.1-12.6c-0.3-2.5-2.5-4.4-5-4.4l-5,0c-2,0-3.8,0.8-5.1,2.4c-1.7,2-4.2,3.2-7,3.2
	c-5.1,0-9.2-4.1-9.2-9.2c0-5.1,4.1-9.2,9.2-9.2c2.8,0,5.3,1.2,7,3.2c1.3,1.5,3.1,2.4,5.1,2.4l5,0c2.6,0,4.7-1.9,5-4.4
	c0.3-2.2,0.7-4.5,1.3-6.7c0.6-2.5-0.7-5-3.1-5.9l-2.4-0.9c-1.9-0.7-3.8-0.6-5.6,0.3c-2.3,1.2-5.1,1.5-7.7,0.4
	c-4.7-1.9-7.1-7.2-5.2-11.9l0.3-0.7c1.9-4.7,7.2-7.1,11.9-5.2c2.6,1,4.5,3.1,5.3,5.6c0.7,1.9,2,3.3,3.9,4.1l2.4,0.9
	c2.4,0.9,5,0,6.3-2.3c1.1-2,2.3-3.9,3.6-5.8c1.5-2.1,1.2-4.9-0.7-6.6l-3.7-3.4c-1.5-1.4-3.3-2-5.4-1.8c-2.6,0.3-5.3-0.5-7.3-2.4
	c-3.7-3.5-3.9-9.3-0.5-13c3.5-3.7,9.3-3.9,13-0.5c2.1,1.9,3,4.5,2.9,7.1c-0.1,2,0.7,3.8,2.2,5.2l3.7,3.4c1.9,1.7,4.7,1.8,6.7,0.2
	c3.3-2.8,7-5.2,10.8-7.2c2.2-1.1,3.2-3.6,2.5-6l-1.3-4.4c-0.6-2-1.9-3.4-3.7-4.2c-2.4-1-4.3-3.1-5.1-5.8c-1.5-4.9,1.3-10,6.2-11.5
	c4.9-1.5,10,1.3,11.5,6.2c0.8,2.7,0.3,5.4-1.1,7.6c-1.1,1.7-1.4,3.6-0.8,5.6l1.1,3.5c0.8,2.5,3.4,4.1,6,3.5c4.4-1,9-1.5,13.6-1.5
	c2.4,0,4.5-1.7,5-4.1l0.6-3.2c0.4-2-0.1-3.9-1.3-5.5c-1.6-2-2.3-4.7-1.8-7.5c1-5,5.8-8.2,10.8-7.2c5,1,8.2,5.8,7.2,10.8
	c-0.5,2.7-2.3,5-4.5,6.2c-1.8,1-2.9,2.6-3.3,4.6l-0.4,2.2c-0.5,2.6,1.1,5.2,3.6,5.9c4.6,1.3,9.1,3.1,13.3,5.4
	c2.2,1.2,4.8,0.7,6.4-1.3l1-1.3c1.3-1.6,1.7-3.5,1.3-5.5c-0.5-2.5,0.1-5.3,1.8-7.5c3.2-4,9-4.6,12.9-1.5c4,3.2,4.6,9,1.5,12.9
	c-1.7,2.2-4.3,3.4-6.9,3.5c-2,0.1-3.8,0.9-5,2.5l-0.6,0.7c-1.6,2.1-1.4,5,0.5,6.8c3.6,3.5,6.8,7.4,9.4,11.6c0.8,1.3,2.1,2.2,3.7,2.3
	c1.6,0.2,3-0.3,4.1-1.4c0.9-0.9,1.5-2,1.8-3.4c0.5-2.5,2.1-4.8,4.6-6.2c4.5-2.4,10-0.8,12.5,3.6c2.4,4.5,0.8,10-3.6,12.5
	c-2.5,1.3-5.3,1.5-7.7,0.5c-0.4-0.1-0.7-0.2-1.1-0.3c-2.1-0.4-4.2,0.4-5.3,2.3c-1.1,1.8-1,4.1,0.3,5.8c3.3,4.3,7.3,8,11.9,10.9
	c1.9,1.2,4.2,1.1,6-0.4c1.7-1.4,2.3-3.7,1.5-5.8c-0.9-2.3-0.9-5,0.3-7.4c2.2-4.6,7.7-6.5,12.3-4.3c4.6,2.2,6.5,7.7,4.3,12.3
	c-1.1,2.3-3,3.9-5.2,4.7c-2,0.7-3.2,2.4-3.4,4.5c-0.1,2.1,0.9,3.9,2.8,4.8c3.9,1.9,7.2,4.6,9.8,7.7c1.7,2,4.5,2.4,6.6,1l1.6-1.1
	c1.7-1.1,2.7-2.8,3-4.8c0.3-2.6,1.8-5,4.1-6.5c4.3-2.8,10-1.6,12.7,2.7c2.8,4.3,1.6,10-2.7,12.7c-2.3,1.5-5.1,1.9-7.6,1.1
	c-2-0.6-3.9-0.3-5.6,0.8l-3.3,2.2c-1.8,1.2-2.6,3.3-2.2,5.4c0.8,3.6,1,7.3,0.5,11c-0.3,2.3,1,4.5,3.2,5.4l4.8,1.9
	c1.9,0.7,3.8,0.6,5.6-0.3c2.3-1.2,5.1-1.5,7.7-0.4c4.7,1.9,7.1,7.2,5.2,11.9l-0.3,0.7c-1.9,4.7-7.2,7.1-11.9,5.2
	c-2.6-1-4.5-3.1-5.3-5.5c-0.7-1.9-2-3.3-3.9-4.1l-4.8-1.9C357.3,540.7,354.9,541.4,353.5,543.3z"/>
<g>
	<path class="st1" d="M342.3,516L342.3,516c-0.3,0.8-1.3,1.3-2.1,0.9l-3.8-1.5c-0.8-0.3-1.3-1.3-0.9-2.1v0c0.3-0.8,1.3-1.3,2.1-0.9
		l3.8,1.5C342.2,514.2,342.6,515.1,342.3,516z"/>
	<path class="st1" d="M332.4,541.2L332.4,541.2c-0.3,0.8-1.3,1.3-2.1,0.9l-3.8-1.5c-0.8-0.3-1.3-1.3-0.9-2.1l0,0
		c0.3-0.8,1.3-1.3,2.1-0.9l3.8,1.5C332.3,539.4,332.7,540.3,332.4,541.2z"/>
</g>
</svg>
