<?xml version="1.0" encoding="utf-8"?>
<!-- Generator: Adobe Illustrator 19.2.1, SVG Export Plug-In . SVG Version: 6.00 Build 0)  -->
<svg version="1.1" id="_x2014_лой_x5F_1" xmlns="http://www.w3.org/2000/svg" xmlns:xlink="http://www.w3.org/1999/xlink"
	 x="0px" y="0px" viewBox="0 0 992.1 992.1" style="enable-background:new 0 0 992.1 992.1;" xml:space="preserve">
<style type="text/css">
	.st0{fill-rule:evenodd;clip-rule:evenodd;fill:#F6DA2E;}
	.st1{fill-rule:evenodd;clip-rule:evenodd;}
</style>
<path class="st0" d="M385.2,186c12.9-1.2,25.7-0.1,37.9,3.1c7.2,1.9,14.5-0.7,18.8-6.8l7.9-11.2c4.1-5.8,5.3-12.4,3.5-19.2
	c-2.2-8.7-0.8-18.3,4.8-26.2c10.1-14.4,30-17.8,44.3-7.7c14.4,10.1,17.8,30,7.7,44.3c-5.6,7.9-14.1,12.5-23,13.4
	c-7,0.7-12.8,4-16.9,9.8l-3.9,5.5c-5.1,7.3-4,17.1,2.5,23c10.5,9.6,19.3,21.4,25.5,34.9c3,6.5,9.2,10.4,16.4,10.2
	c7.2-0.2,13.2-4.4,15.8-11.1c3-7.5,8.8-13.9,16.8-17.4c16.1-7.1,34.9,0.2,41.9,16.3c7.1,16.1-0.2,34.9-16.3,41.9
	c-8.5,3.7-17.7,3.5-25.6,0c-7.1-3.1-15-1.3-20.1,4.4c-5.1,5.8-5.9,13.9-1.9,20.5c9.7,16.3,21.7,30.5,36.3,42.6
	c5.7,4.8,13.5,5.4,20,1.7c6.5-3.7,9.8-10.8,8.5-18.1c-0.2-1.3-0.5-2.5-1-3.8c-2.9-8.5-2.1-18.2,2.8-26.5c9-15.1,28.5-20,43.6-11.1
	c15.1,9,20,28.5,11.1,43.6c-5,8.3-13.1,13.5-21.9,15.1c-4.7,0.8-8.7,2.8-11.9,5.8c-4,3.8-5.9,8.7-5.5,14.1c0.4,5.5,3.1,10,7.6,13.1
	c14.2,9.6,27.2,21,38.8,34c6.1,6.8,16.2,7.8,23.5,2.4l2.5-1.9c5.7-4.2,8.9-10.1,9.4-17.1c0.6-9,5-17.6,12.8-23.3
	c14.1-10.5,34-7.5,44.5,6.6c10.5,14.1,7.5,34-6.6,44.5c-7.8,5.8-17.3,7.4-26.1,5.4c-6.9-1.6-13.4-0.2-19.1,4l-4.5,3.3
	c-6.9,5.1-9.1,14.3-5.2,21.9c7.4,14.8,13.2,30.5,17,46.7c2.1,9,10.8,14.7,19.9,13.2l7.7-1.3c7-1.1,12.5-4.9,16.2-10.9
	c4.7-7.7,12.5-13.3,22.1-14.9c17.3-2.8,33.7,8.9,36.5,26.3c2.8,17.3-8.9,33.7-26.3,36.5c-9.6,1.6-18.8-1.3-25.7-7.1
	c-5.4-4.6-11.8-6.3-18.8-5.2l-11.3,1.8c-8.4,1.4-14.4,8.3-14.7,16.7c-0.5,15.9-2.8,31.6-6.7,46.8c-2.3,8.9,2.6,18,11.3,21l12,4.1
	c6.7,2.3,13.3,1.6,19.4-2c7.7-4.6,17.3-5.9,26.5-2.8c16.6,5.7,25.5,23.7,19.9,40.4c-5.7,16.6-23.7,25.5-40.4,19.9
	c-9.2-3.1-16-10-19.3-18.3c-2.6-6.6-7.5-11.2-14.2-13.4l-15.2-5.2c-8-2.7-16.7,0.6-20.9,7.9c-7.4,13-16.1,25.2-26.1,36.5
	c-5.9,6.6-5.9,16.4-0.2,23.1l11.3,13.1c4.6,5.3,10.7,8.1,17.8,8.1c9-0.1,17.9,3.7,24.2,11c11.5,13.3,10.1,33.4-3.2,44.9
	c-13.3,11.5-33.4,10.1-44.9-3.2c-6.3-7.3-8.7-16.7-7.4-25.6c1-7-0.8-13.4-5.4-18.8l-11.4-13.1c-5.8-6.7-15.5-8-22.8-3.2
	c-6.5,4.3-13.4,8.2-20.5,11.8c-7.9,4-11.5,13.1-8.6,21.4l2.9,8.4c2.3,6.7,7,11.5,13.6,14c8.4,3.2,15.3,10,18.5,19.1
	c5.8,16.6-2.9,34.7-19.5,40.6l-2.4,0.8c-16.6,5.8-34.7-2.9-40.6-19.5c-3.2-9.1-2-18.7,2.5-26.5c3.5-6.1,4.2-12.8,1.8-19.4l-2.9-8.4
	c-2.9-8.3-11.5-13.1-20.1-11.3c-7.8,1.6-15.6,2.8-23.4,3.6c-8.8,0.8-15.5,8-15.8,16.8l-0.6,17.4c-0.3,7.1,2.3,13.2,7.5,18
	c6.6,6.1,10.6,14.9,10.2,24.6c-0.7,17.6-15.4,31.3-33,30.6c-17.6-0.7-31.3-15.4-30.6-33c0.4-9.7,5-18.2,12-23.7
	c5.5-4.4,8.6-10.4,8.8-17.4l0.6-17.3c0.3-8.8-5.9-16.4-14.6-17.9c-14.8-2.5-29.3-6.6-43.2-12.1c-7.9-3.1-16.7-0.3-21.3,6.9
	l-8.6,13.5c-3.8,6-4.7,12.6-2.6,19.3c2.6,8.6,1.6,18.2-3.6,26.4c-9.4,14.8-29.1,19.2-43.9,9.8c-14.8-9.4-19.2-29.1-9.8-43.9
	c5.2-8.2,13.5-13.2,22.4-14.4c7-1,12.6-4.6,16.4-10.6l6.8-10.6c4.9-7.8,3.1-18-4.3-23.4c-12.6-9.4-24.2-20.2-34.5-32.3
	c-5.5-6.4-14.6-8-21.9-3.9l-9.9,5.6c-6.1,3.5-10.1,8.9-11.4,15.8c-1.7,8.8-7.1,16.8-15.6,21.6c-15.3,8.7-34.7,3.3-43.4-12
	c-8.7-15.3-3.3-34.7,12-43.4c8.4-4.8,18.1-5.3,26.5-2.2c6.6,2.4,13.3,1.9,19.5-1.6l6.8-3.8c8-4.5,11.1-14.4,7.2-22.8
	c-7.1-15-12.5-30.8-16-47c-1.8-8.4-9.2-14.2-17.8-13.8l-5.5,0.2c-7.1,0.3-13,3.3-17.4,8.8c-5.6,7-14.1,11.7-23.7,12.1
	c-17.6,0.7-32.3-13-33-30.6c-0.7-17.6,13-32.3,30.6-33c9.7-0.4,18.5,3.6,24.6,10.2c4.8,5.2,11,7.7,18,7.5l3.1-0.1
	c9.1-0.4,16.3-7.5,16.8-16.6c0.9-17.3,4-34.4,9-50.7c1.6-5.3,0.8-10.4-2.3-15c-3.1-4.5-7.6-7.2-13.1-7.6c-4.4-0.3-8.8,0.6-12.9,2.9
	c-7.9,4.3-17.5,5.4-26.5,2c-16.5-6.1-24.8-24.5-18.7-40.9c6.1-16.5,24.5-24.8,40.9-18.7c9.1,3.4,15.7,10.5,18.8,18.9
	c0.5,1.3,1,2.4,1.6,3.6c3.6,6.5,10.6,10,18,8.8c7.4-1.1,13-6.5,14.5-13.8c3.8-18.5,4.3-37.1,1.6-55.9c-1.1-7.7-6.7-13.5-14.4-14.8
	c-7.6-1.3-14.9,2.3-18.5,9.1c-4,7.6-11,13.6-19.9,16c-17,4.5-34.4-5.5-39-22.5c-4.5-17,5.5-34.4,22.5-39c8.4-2.3,17-0.9,24,3.1
	c6.2,3.6,13.6,3.1,19.3-1.3c5.7-4.3,8.1-11.3,6.4-18.2c-3.7-14.4-4.2-29.1-2-43.2c1.4-8.8-3.9-17.1-12.4-19.5l-6.5-1.9
	c-6.8-2-13.4-1-19.3,2.9c-7.5,4.9-17,6.7-26.3,4c-16.9-4.9-26.6-22.5-21.7-39.4c4.9-16.9,22.5-26.6,39.4-21.7
	c9.3,2.7,16.4,9.2,20.1,17.4c2.9,6.4,8,10.8,14.8,12.8l13.2,3.8c7.2,2.1,14.5-0.4,18.9-6.4c7.5-10.1,16.8-19,27.6-26.1
	c6.8-4.5,9.6-12.8,6.9-20.4l-5.9-16.8c-2.3-6.7-7-11.5-13.6-14c-8.4-3.2-15.3-10-18.5-19.1c-5.8-16.6,2.9-34.7,19.5-40.6l2.4-0.8
	c16.6-5.8,34.7,2.9,40.6,19.5c3.2,9.1,2,18.7-2.5,26.5c-3.5,6.1-4.2,12.8-1.8,19.4l5.9,16.8C369.7,182.1,377,186.8,385.2,186z"/>
<g>
	<path class="st1" d="M339,277.2L339,277.2c2.9-1,6.2,0.5,7.2,3.5l4.7,13.4c1,2.9-0.5,6.2-3.5,7.2h0c-2.9,1-6.2-0.5-7.2-3.5
		l-4.7-13.4C334.5,281.5,336,278.2,339,277.2z"/>
	<path class="st1" d="M427.2,246.2L427.2,246.2c2.9-1,6.2,0.5,7.2,3.5l4.7,13.4c1,2.9-0.5,6.2-3.5,7.2h0c-2.9,1-6.2-0.5-7.2-3.5
		l-4.7-13.4C422.7,250.5,424.3,247.2,427.2,246.2z"/>
</g>
</svg>
