<?xml version="1.0" encoding="utf-8"?>
<!-- Generator: Adobe Illustrator 19.2.1, SVG Export Plug-In . SVG Version: 6.00 Build 0)  -->
<svg version="1.1" id="Layer_1" xmlns="http://www.w3.org/2000/svg" xmlns:xlink="http://www.w3.org/1999/xlink" x="0px" y="0px"
	 viewBox="0 0 450 450" style="enable-background:new 0 0 450 450;" xml:space="preserve">
<style type="text/css">
	.st0{fill:#FFFFFF;}
	.st1{fill:#FFB91D;}
	.st2{fill:#FFDE9C;}
</style>
<g>
	<path class="st0" d="M192.9,183.8c-22.8-50,60.1-52.9,40.8-1.4c19.3-51.5,79.9,5.1,29.9,27.9c50-22.8,52.9,60.1,1.4,40.8
		c51.5,19.3-5.1,79.9-27.9,29.9c22.8,50-60.1,52.9-40.8,1.4c-19.3,51.5-79.9-5.1-29.9-27.9c-50,22.8-52.9-60.1-1.4-40.8
		C113.6,194.4,170.1,133.7,192.9,183.8z"/>
	<ellipse transform="matrix(0.8572 -0.515 0.515 0.8572 -88.9527 143.9349)" class="st1" cx="215" cy="232.3" rx="34.2" ry="34.2"/>
	<path class="st2" d="M227.2,207.3c1.2,1.4,2.3,2.9,3.3,4.5c8.8,14.6,4.1,33.6-10.6,42.4c-4.4,2.7-9.3,4.1-14.1,4.4
		c7.5,2.6,16.2,2,23.5-2.4c13.2-7.9,17.4-25,9.5-38.2C236,213.2,231.9,209.6,227.2,207.3z"/>
</g>
</svg>
