<!-- Generator: Adobe Illustrator 21.0.0, SVG Export Plug-In  -->
<svg version="1.1"
	 xmlns="http://www.w3.org/2000/svg" xmlns:xlink="http://www.w3.org/1999/xlink" xmlns:a="http://ns.adobe.com/AdobeSVGViewerExtensions/3.0/"
	 x="0px" y="0px" width="183.2px" height="58.1px" viewBox="0 0 183.2 58.1" style="enable-background:new 0 0 183.2 58.1;"
	 xml:space="preserve">
<style type="text/css">
	.st0{fill:#FFFEFE;}
</style>
<defs>
</defs>
<g>
	<path class="st0" d="M0,27.8V6.4h7c2.5,0,4.5,0.5,5.9,1.5c1.4,1,2.1,2.4,2.1,4.4c0,1-0.3,1.9-0.8,2.6S13,16.3,12,16.7
		c1.3,0.2,2.3,0.8,3,1.7s1,2,1,3.2c0,2-0.7,3.6-2,4.6c-1.3,1-3.3,1.6-5.7,1.6H0z M4.3,15.4h2.9c1.1,0,2-0.2,2.6-0.7s0.9-1.2,0.9-2.1
		c0-1-0.3-1.7-0.9-2.2S8.2,9.7,7,9.7H4.3V15.4z M4.3,18.3v6.2h4c1.1,0,2-0.2,2.6-0.7c0.6-0.5,0.9-1.2,0.9-2.2c0-1-0.3-1.8-0.9-2.4
		s-1.5-0.8-2.7-0.8H4.3z"/>
	<path class="st0" d="M23.4,13.9H27c2.5,0,4.4,0.6,5.8,1.9s2.2,2.9,2.2,5c0,2.1-0.7,3.7-2.2,5s-3.4,1.9-5.8,1.9h-7.9V6.4h4.3V13.9z
		 M23.4,17.2v7.3H27c1.2,0,2.1-0.4,2.8-1.1s1-1.6,1-2.6c0-1-0.3-1.8-1-2.5c-0.6-0.7-1.6-1-2.8-1H23.4z M41.2,27.8H37V6.4h4.3V27.8z"
		/>
	<path class="st0" d="M58,6.4h4.3v21.3H58V13.5l-0.1,0l-8.6,14.3H45V6.4h4.3v14.2l0.1,0L58,6.4z"/>
	<path class="st0" d="M80,9.7h-9.6v18h-4.3V6.4H80V9.7z"/>
	<path class="st0" d="M87,20v7.7h-4.3V6.4h8.2c2.5,0,4.4,0.6,5.8,1.9s2.1,2.9,2.1,4.9s-0.7,3.7-2.1,4.9S93.4,20,90.9,20H87z
		 M87,16.7h3.9c1.2,0,2.1-0.3,2.7-1c0.6-0.7,0.9-1.5,0.9-2.5c0-1-0.3-1.9-0.9-2.5c-0.6-0.7-1.5-1-2.7-1H87V16.7z"/>
	<path class="st0" d="M106.1,13.9h3.7c2.5,0,4.4,0.6,5.8,1.9s2.2,2.9,2.2,5c0,2.1-0.7,3.7-2.2,5c-1.5,1.3-3.4,1.9-5.8,1.9h-7.9V6.4
		h4.3V13.9z M106.1,17.2v7.3h3.7c1.2,0,2.1-0.4,2.8-1.1s1-1.6,1-2.6c0-1-0.3-1.8-1-2.5c-0.6-0.7-1.6-1-2.8-1H106.1z M124,27.8h-4.3
		V6.4h4.3V27.8z"/>
	<path class="st0" d="M127.9,27.8V6.4h7c2.5,0,4.5,0.5,5.9,1.5c1.4,1,2.1,2.4,2.1,4.4c0,1-0.3,1.9-0.8,2.6s-1.3,1.4-2.2,1.7
		c1.3,0.2,2.3,0.8,3,1.7s1,2,1,3.2c0,2-0.7,3.6-2,4.6c-1.3,1-3.3,1.6-5.7,1.6H127.9z M132.2,15.4h2.9c1.1,0,2-0.2,2.6-0.7
		s0.9-1.2,0.9-2.1c0-1-0.3-1.7-0.9-2.2c-0.6-0.5-1.5-0.7-2.8-0.7h-2.7V15.4z M132.2,18.3v6.2h4c1.1,0,2-0.2,2.6-0.7
		c0.6-0.5,0.9-1.2,0.9-2.2c0-1-0.3-1.8-0.9-2.4s-1.5-0.8-2.7-0.8H132.2z"/>
	<path class="st0" d="M158.1,23.2h-6.9l-1.4,4.6h-4.5l7.2-21.3h4.4l7.2,21.3h-4.5L158.1,23.2z M152.3,19.8h4.8l-2.4-7.5h-0.1
		L152.3,19.8z"/>
	<path class="st0" d="M178.9,6.4h4.3v21.3h-4.3V13.5l-0.1,0l-8.6,14.3H166V6.4h4.3v14.2l0.1,0L178.9,6.4z M179.6,0L179.6,0
		c0.1,1.3-0.4,2.3-1.3,3.1c-0.9,0.8-2.1,1.2-3.7,1.2c-1.6,0-2.8-0.4-3.7-1.2c-0.9-0.8-1.3-1.8-1.3-3l0-0.1h3.1
		c0,0.5,0.1,0.9,0.4,1.3c0.3,0.3,0.8,0.5,1.4,0.5c0.6,0,1.1-0.2,1.4-0.5s0.4-0.8,0.4-1.3H179.6z"/>
	<path class="st0" d="M23.1,50.7L23.1,50.7c0.1,2.4-0.6,4.1-2.1,5.4s-3.4,1.9-5.9,1.9c-2.6,0-4.6-0.8-6.2-2.5s-2.4-3.8-2.4-6.4V45
		c0-2.6,0.8-4.7,2.3-6.4c1.5-1.7,3.5-2.5,6-2.5c2.6,0,4.6,0.6,6.1,1.9s2.2,3.1,2.1,5.4l0,0.1h-4.2c0-1.4-0.3-2.4-1-3.1s-1.7-1-3.1-1
		c-1.3,0-2.3,0.5-3,1.5c-0.7,1-1.1,2.4-1.1,4v4.3c0,1.6,0.4,3,1.1,4s1.8,1.6,3.2,1.6c1.3,0,2.2-0.3,2.9-1s0.9-1.7,0.9-3.1H23.1z"/>
	<path class="st0" d="M37.2,52.2L37.2,52.2l5.6-15.7h5.6v21.3h-4.3V43.2l-0.1,0l-5.3,14.6h-2.9l-5.3-14.6l-0.1,0v14.6h-4.3V36.4h5.6
		L37.2,52.2z"/>
	<path class="st0" d="M63.7,53.2h-6.9l-1.4,4.6h-4.5L58,36.4h4.4l7.2,21.3h-4.5L63.7,53.2z M57.8,49.8h4.8l-2.4-7.5h-0.1L57.8,49.8z
		"/>
	<path class="st0" d="M75.9,50v7.7h-4.3V36.4h8.2c2.5,0,4.4,0.6,5.8,1.9s2.1,2.9,2.1,4.9s-0.7,3.7-2.1,4.9S82.2,50,79.8,50H75.9z
		 M75.9,46.7h3.9c1.2,0,2.1-0.3,2.7-1s0.9-1.5,0.9-2.5c0-1-0.3-1.9-0.9-2.5c-0.6-0.7-1.5-1-2.7-1h-3.9V46.7z"/>
	<path class="st0" d="M105.6,39.7h-6.1v18h-4.3v-18h-6v-3.3h16.4V39.7z"/>
	<path class="st0" d="M119.3,39.4c2.4,0.2,4.4,0.9,5.9,2.4c1.5,1.4,2.2,3.2,2.2,5.5c0,2.2-0.8,4-2.3,5.4c-1.5,1.4-3.5,2.2-5.9,2.3
		v2.9H115v-2.9c-2.4-0.1-4.4-0.9-5.9-2.3s-2.3-3.2-2.3-5.4c0-2.3,0.8-4.1,2.3-5.5s3.5-2.2,5.9-2.3v-2.9h4.3V39.4z M111,47.3
		c0,1.2,0.3,2.2,1,2.9c0.7,0.7,1.6,1.1,2.8,1.2l0.1,0V43l-0.1,0c-1.2,0.1-2.2,0.5-2.8,1.2C111.4,45,111,46,111,47.3z M123.2,47.2
		c0-1.3-0.3-2.3-1-3c-0.7-0.7-1.6-1.1-2.8-1.2l-0.1,0v8.3l0.1,0c1.2-0.1,2.1-0.5,2.8-1.2C122.9,49.4,123.2,48.4,123.2,47.2z"/>
	<path class="st0" d="M147.3,49c0,2.6-0.8,4.8-2.5,6.5s-3.8,2.6-6.4,2.6c-2.6,0-4.8-0.9-6.4-2.6s-2.5-3.9-2.5-6.5v-3.8
		c0-2.6,0.8-4.8,2.5-6.5c1.6-1.7,3.8-2.6,6.4-2.6c2.6,0,4.8,0.9,6.5,2.6c1.7,1.7,2.5,3.9,2.5,6.5V49z M143,45.2c0-1.7-0.4-3-1.2-4.1
		s-2-1.6-3.4-1.6c-1.4,0-2.6,0.5-3.4,1.6c-0.8,1.1-1.2,2.4-1.2,4.1V49c0,1.7,0.4,3.1,1.2,4.1s1.9,1.6,3.4,1.6c1.5,0,2.6-0.5,3.4-1.6
		s1.2-2.4,1.2-4.1V45.2z"/>
	<path class="st0" d="M167.9,57.8h-4.3v-8.9h-8.7v8.9h-4.3V36.4h4.3v9.2h8.7v-9.2h4.3V57.8z"/>
	<path class="st0" d="M176.1,50.4h-4.3v-14h4.3V50.4z M176.1,57.8h-4.3V54h4.3V57.8z"/>
</g>
</svg>
