<?xml version="1.0" encoding="UTF-8"?>
<svg width="255px" height="71px" viewBox="0 0 255 71" version="1.1" xmlns="http://www.w3.org/2000/svg" xmlns:xlink="http://www.w3.org/1999/xlink">
    <!-- Generator: Sketch 48.1 (47250) - http://www.bohemiancoding.com/sketch -->
    <title>cta</title>
    <desc>Created with Sketch.</desc>
    <defs></defs>
    <g id="Page-1" stroke="none" stroke-width="1" fill="none" fill-rule="evenodd">
        <g id="cta">
            <rect id="Rectangle-2-Copy" fill="#2353BC" x="0" y="0" width="255" height="71" rx="8"></rect>
            <path d="M35.314,51 L35.314,25.392 C35.358,22.268 36.81,20.596 39.538,20.2 L45.566,20.2 C48.558,20.2 50.978,21.432 52.606,23.5 C55.158,26.712 54.894,31.684 51.11,34.104 C58.414,36.964 58.238,46.688 51.682,49.944 C50.274,50.648 48.338,51 45.83,51 L35.314,51 Z M41.122,25.832 L41.122,45.456 C42.97,45.456 46.05,45.676 47.854,45.148 C52.342,43.96 51.374,38.68 47.194,37.712 C45.962,37.448 43.014,37.228 42.134,38.592 C40.726,35.292 41.386,33.004 46.05,32.124 C47.502,31.86 48.602,30.54 48.602,28.956 C48.602,27.284 47.238,26.272 45.786,25.964 C44.51,25.7 42.222,25.832 41.122,25.832 Z M61.01,20.2 L66.862,20.2 L66.862,39.384 C66.862,43.256 68.05,45.94 71.79,45.94 C75.574,45.94 77.114,43.476 77.114,39.252 L77.114,25.524 C77.114,22.312 78.346,20.068 82.922,20.2 L82.922,38.416 C82.922,46.072 80.678,51.528 71.834,51.528 C62.99,51.528 61.01,46.116 61.01,38.416 L61.01,20.2 Z M96.034,51.396 C90.314,51.396 86.002,48.404 87.718,42.42 C89.082,44.972 92.558,46.292 95.462,46.16 C99.598,46.028 101.93,44.092 101.93,39.868 C101.094,42.024 97.662,43.08 95.55,43.212 C93.35,43.344 91.106,42.684 89.346,40.88 C88.026,39.56 87.41,37.624 87.41,35.028 L87.41,20.2 L92.954,20.2 C92.954,23.104 92.734,33.224 93.306,35.292 C93.79,37.096 95.198,38.108 96.694,38.064 C98.674,38.064 100.39,36.7 100.346,34.984 C101.138,35.204 101.622,35.776 101.93,36.524 L101.93,20.2 L107.562,20.2 L107.562,40.132 C107.562,46.996 103.602,51.396 96.034,51.396 Z M122.962,24.864 C122.962,22.4 124.458,20.2 127.538,20.2 L128.506,20.2 L141.794,40.484 L141.794,20.2 L147.602,20.2 L147.602,51 L142.014,51 L128.77,30.804 L128.77,51 L122.962,51 L122.962,24.864 Z M167.05,19.628 C171.362,19.628 175.102,21.212 178.182,24.336 C181.306,27.46 182.846,31.288 182.846,35.776 C182.846,40.22 181.35,44.004 178.27,47.084 C175.19,50.164 171.494,51.704 167.094,51.704 C162.518,51.704 158.69,50.12 155.654,46.952 C152.618,43.784 151.122,40 151.122,35.644 C151.122,33.928 151.43,31.288 152.31,29.572 C155.17,23.852 165.73,24.996 163.882,32.124 C161.638,29.44 156.798,30.672 157.018,36.436 C157.15,39.516 158.338,41.936 160.626,43.784 C162.474,45.324 164.63,46.116 167.094,46.116 C169.822,46.116 172.154,45.104 174.09,43.124 C176.026,41.1 176.994,38.68 176.994,35.732 C176.994,32.828 176.026,30.364 174.09,28.34 C172.11,26.36 169.778,25.348 166.962,25.348 C165.686,25.348 164.542,25.524 163.442,25.92 C161.33,23.984 157.414,23.852 154.598,25.612 C155.83,24.072 157.326,22.796 159.042,21.784 C161.55,20.332 164.19,19.628 167.05,19.628 Z M185.706,20.288 L191.47,20.288 L195.914,39.912 L199.918,25.612 C200.886,22.18 202.734,20.024 206.254,20.288 L211.842,39.912 L215.054,25.568 C215.934,21.784 217.958,19.76 222.006,20.288 L215.01,51 L209.422,51 L203.79,31.156 L198.246,51 L192.702,51 L185.706,20.288 Z" id="BUY-NOW-Copy" fill="#FFFFFF"></path>
        </g>
    </g>
</svg>